<?xml version="1.0" encoding="utf-8" standalone="no"?>
<!DOCTYPE svg PUBLIC "-//W3C//DTD SVG 1.1//EN"
  "http://www.w3.org/Graphics/SVG/1.1/DTD/svg11.dtd">
<!-- Created with matplotlib (http://matplotlib.org/) -->
<svg height="648pt" version="1.1" viewBox="0 0 864 648" width="864pt" xmlns="http://www.w3.org/2000/svg" xmlns:xlink="http://www.w3.org/1999/xlink">
 <defs>
  <style type="text/css">
*{stroke-linecap:butt;stroke-linejoin:round;stroke-miterlimit:100000;}
  </style>
 </defs>
 <g id="figure_1">
  <g id="patch_1">
   <path d="M 0 648 
L 864 648 
L 864 0 
L 0 0 
L 0 648 
z
" style="fill:none;opacity:0;"/>
  </g>
  <g id="axes_1">
   <g id="patch_2">
    <path d="M 178.064775 146.746578 
L 564.629048 146.746578 
L 564.629048 89.140568 
L 178.064775 89.140568 
z
" style="fill:#ffffff;"/>
   </g>
   <g id="matplotlib.axis_1">
    <g id="xtick_1">
     <g id="line2d_1">
      <defs>
       <path d="M 0 0 
L 0 3 
" id="m07346bcb2f" style="stroke:#262626;stroke-width:1.5;"/>
      </defs>
      <g>
       <use style="fill:#262626;stroke:#262626;stroke-width:1.5;" x="178.064774624" xlink:href="#m07346bcb2f" y="146.746577629"/>
      </g>
     </g>
     <g id="line2d_2">
      <defs>
       <path d="M 0 0 
L 0 -3 
" id="mbd1ebe22b3" style="stroke:#262626;stroke-width:1.5;"/>
      </defs>
      <g>
       <use style="fill:#262626;stroke:#262626;stroke-width:1.5;" x="178.064774624" xlink:href="#mbd1ebe22b3" y="89.1405676127"/>
      </g>
     </g>
    </g>
    <g id="xtick_2">
     <g id="line2d_3">
      <g>
       <use style="fill:#262626;stroke:#262626;stroke-width:1.5;" x="564.629048414" xlink:href="#m07346bcb2f" y="146.746577629"/>
      </g>
     </g>
     <g id="line2d_4">
      <g>
       <use style="fill:#262626;stroke:#262626;stroke-width:1.5;" x="564.629048414" xlink:href="#mbd1ebe22b3" y="89.1405676127"/>
      </g>
     </g>
    </g>
   </g>
   <g id="matplotlib.axis_2">
    <g id="ytick_1">
     <g id="line2d_5">
      <defs>
       <path d="M 0 0 
L -3 0 
" id="m9e918c5a05" style="stroke:#262626;stroke-width:1.5;"/>
      </defs>
      <g>
       <use style="fill:#262626;stroke:#262626;stroke-width:1.5;" x="178.064774624" xlink:href="#m9e918c5a05" y="146.746577629"/>
      </g>
     </g>
     <g id="line2d_6">
      <defs>
       <path d="M 0 0 
L 3 0 
" id="m41a6a453ce" style="stroke:#262626;stroke-width:1.5;"/>
      </defs>
      <g>
       <use style="fill:#262626;stroke:#262626;stroke-width:1.5;" x="564.629048414" xlink:href="#m41a6a453ce" y="146.746577629"/>
      </g>
     </g>
     <g id="text_1">
      <!-- 0 -->
      <defs>
       <path d="M 31.78125 3.421875 
Q 39.265625 3.421875 42.96875 11.625 
Q 46.6875 19.828125 46.6875 36.375 
Q 46.6875 52.984375 42.96875 61.1875 
Q 39.265625 69.390625 31.78125 69.390625 
Q 24.3125 69.390625 20.59375 61.1875 
Q 16.890625 52.984375 16.890625 36.375 
Q 16.890625 19.828125 20.59375 11.625 
Q 24.3125 3.421875 31.78125 3.421875 
M 31.78125 -1.421875 
Q 19.921875 -1.421875 13.25 8.53125 
Q 6.59375 18.5 6.59375 36.375 
Q 6.59375 54.296875 13.25 64.25 
Q 19.921875 74.21875 31.78125 74.21875 
Q 43.703125 74.21875 50.34375 64.25 
Q 56.984375 54.296875 56.984375 36.375 
Q 56.984375 18.5 50.34375 8.53125 
Q 43.703125 -1.421875 31.78125 -1.421875 
" id="DejaVuSerif-30"/>
      </defs>
      <g style="fill:#262626;" transform="translate(152.339774624 152.265327629)scale(0.2 -0.2)">
       <use xlink:href="#DejaVuSerif-30"/>
      </g>
     </g>
    </g>
    <g id="ytick_2">
     <g id="line2d_7">
      <g>
       <use style="fill:#262626;stroke:#262626;stroke-width:1.5;" x="178.064774624" xlink:href="#m9e918c5a05" y="89.1405676127"/>
      </g>
     </g>
     <g id="line2d_8">
      <g>
       <use style="fill:#262626;stroke:#262626;stroke-width:1.5;" x="564.629048414" xlink:href="#m41a6a453ce" y="89.1405676127"/>
      </g>
     </g>
     <g id="text_2">
      <!-- 1 -->
      <defs>
       <path d="M 14.203125 0 
L 14.203125 5.171875 
L 26.90625 5.171875 
L 26.90625 65.828125 
L 12.203125 56.296875 
L 12.203125 62.703125 
L 29.984375 74.21875 
L 36.71875 74.21875 
L 36.71875 5.171875 
L 49.421875 5.171875 
L 49.421875 0 
z
" id="DejaVuSerif-31"/>
      </defs>
      <g style="fill:#262626;" transform="translate(152.339774624 94.6593176127)scale(0.2 -0.2)">
       <use xlink:href="#DejaVuSerif-31"/>
      </g>
     </g>
    </g>
   </g>
   <g id="line2d_9">
    <path clip-path="url(#p3c5c0d6715)" d="M 178.064775 143.298279 
L 184.507513 142.875256 
L 190.95025 142.515567 
L 197.392988 142.204872 
L 203.835726 141.851158 
L 210.278464 141.42694 
L 216.721202 140.951338 
L 223.16394 140.568944 
L 229.606678 139.91051 
L 236.049416 139.388303 
L 242.492154 138.550622 
L 248.934891 137.603002 
L 255.377629 135.827261 
L 261.820367 134.220012 
L 268.263105 132.378547 
L 274.705843 130.423559 
L 281.148581 127.967874 
L 287.591319 124.933819 
L 294.034057 121.679887 
L 300.476795 118.780864 
L 306.919533 115.500643 
L 313.36227 111.98979 
L 319.805008 108.536296 
L 326.247746 104.91431 
L 332.690484 101.511006 
L 339.133222 98.77689 
L 345.57596 96.184978 
L 352.018698 92.890416 
L 358.461436 91.027442 
L 364.904174 89.781077 
L 371.346912 89.140568 
L 377.789649 89.62812 
L 384.232387 90.100137 
L 390.675125 91.143355 
L 397.117863 92.462613 
L 403.560601 94.609993 
L 410.003339 96.858947 
L 416.446077 99.806964 
L 422.888815 102.310448 
L 429.331553 105.345698 
L 435.77429 108.417993 
L 442.217028 112.049539 
L 448.659766 115.390704 
L 455.102504 118.802374 
L 461.545242 121.842404 
L 467.98798 124.768912 
L 474.430718 127.535291 
L 480.873456 130.417584 
L 487.316194 132.480121 
L 493.758932 134.430329 
L 500.201669 136.109277 
L 506.644407 137.604197 
L 513.087145 139.191131 
L 519.529883 140.279759 
L 525.972621 141.08159 
L 532.415359 141.873863 
L 538.858097 142.578901 
L 545.300835 142.989974 
L 551.743573 143.623314 
L 558.186311 144.011683 
" style="fill:none;stroke:#ff0000;stroke-linecap:round;stroke-width:2.0;"/>
   </g>
   <g id="patch_3">
    <path d="M 178.064775 89.140568 
L 564.629048 89.140568 
" style="fill:none;stroke:#262626;stroke-linecap:square;stroke-linejoin:miter;stroke-width:1.25;"/>
   </g>
   <g id="patch_4">
    <path d="M 178.064775 146.746578 
L 178.064775 89.140568 
" style="fill:none;stroke:#262626;stroke-linecap:square;stroke-linejoin:miter;stroke-width:1.25;"/>
   </g>
   <g id="patch_5">
    <path d="M 178.064775 146.746578 
L 564.629048 146.746578 
" style="fill:none;stroke:#262626;stroke-linecap:square;stroke-linejoin:miter;stroke-width:1.25;"/>
   </g>
   <g id="patch_6">
    <path d="M 564.629048 146.746578 
L 564.629048 89.140568 
" style="fill:none;stroke:#262626;stroke-linecap:square;stroke-linejoin:miter;stroke-width:1.25;"/>
   </g>
  </g>
  <g id="axes_2">
   <g id="patch_7">
    <path d="M 181.804207 550.8 
L 560.70571 550.8 
L 560.70571 171.898497 
L 181.804207 171.898497 
z
" style="fill:#ffffff;"/>
   </g>
   <g id="matplotlib.axis_3">
    <g id="xtick_3">
     <g id="line2d_10">
      <defs>
       <path d="M 0 0 
L 0 6 
" id="m3c7821a1cc" style="stroke:#262626;"/>
      </defs>
      <g>
       <use style="fill:#262626;stroke:#262626;" x="181.804207012" xlink:href="#m3c7821a1cc" y="550.8"/>
      </g>
     </g>
     <g id="line2d_11">
      <defs>
       <path d="M 0 0 
L 0 -6 
" id="m32404be10e" style="stroke:#262626;"/>
      </defs>
      <g>
       <use style="fill:#262626;stroke:#262626;" x="181.804207012" xlink:href="#m32404be10e" y="171.898497496"/>
      </g>
     </g>
     <g id="text_3">
      <!-- 0 -->
      <g style="fill:#262626;" transform="translate(175.441707012 578.996875)scale(0.2 -0.2)">
       <use xlink:href="#DejaVuSerif-30"/>
      </g>
     </g>
    </g>
    <g id="xtick_4">
     <g id="line2d_12">
      <g>
       <use style="fill:#262626;stroke:#262626;" x="234.853812537" xlink:href="#m3c7821a1cc" y="550.8"/>
      </g>
     </g>
     <g id="line2d_13">
      <g>
       <use style="fill:#262626;stroke:#262626;" x="234.853812537" xlink:href="#m32404be10e" y="171.898497496"/>
      </g>
     </g>
     <g id="text_4">
      <!-- 5 -->
      <defs>
       <path d="M 50.296875 72.90625 
L 50.296875 64.890625 
L 16.890625 64.890625 
L 16.890625 44 
Q 19.4375 45.75 22.828125 46.625 
Q 26.21875 47.515625 30.421875 47.515625 
Q 42.234375 47.515625 49.0625 40.96875 
Q 55.90625 34.421875 55.90625 23.09375 
Q 55.90625 11.53125 49 5.046875 
Q 42.09375 -1.421875 29.59375 -1.421875 
Q 24.5625 -1.421875 19.28125 -0.1875 
Q 14.015625 1.03125 8.5 3.515625 
L 8.5 17.671875 
L 14.015625 17.671875 
Q 14.453125 10.75 18.421875 7.078125 
Q 22.40625 3.421875 29.59375 3.421875 
Q 37.3125 3.421875 41.453125 8.5 
Q 45.609375 13.578125 45.609375 23.09375 
Q 45.609375 32.5625 41.484375 37.609375 
Q 37.359375 42.671875 29.59375 42.671875 
Q 25.203125 42.671875 21.84375 41.109375 
Q 18.5 39.546875 15.921875 36.28125 
L 11.71875 36.28125 
L 11.71875 72.90625 
z
" id="DejaVuSerif-35"/>
      </defs>
      <g style="fill:#262626;" transform="translate(228.491312537 578.996875)scale(0.2 -0.2)">
       <use xlink:href="#DejaVuSerif-35"/>
      </g>
     </g>
    </g>
    <g id="xtick_5">
     <g id="line2d_14">
      <g>
       <use style="fill:#262626;stroke:#262626;" x="287.903418062" xlink:href="#m3c7821a1cc" y="550.8"/>
      </g>
     </g>
     <g id="line2d_15">
      <g>
       <use style="fill:#262626;stroke:#262626;" x="287.903418062" xlink:href="#m32404be10e" y="171.898497496"/>
      </g>
     </g>
     <g id="text_5">
      <!-- 10 -->
      <g style="fill:#262626;" transform="translate(275.178418062 578.996875)scale(0.2 -0.2)">
       <use xlink:href="#DejaVuSerif-31"/>
       <use x="63.623046875" xlink:href="#DejaVuSerif-30"/>
      </g>
     </g>
    </g>
    <g id="xtick_6">
     <g id="line2d_16">
      <g>
       <use style="fill:#262626;stroke:#262626;" x="340.953023588" xlink:href="#m3c7821a1cc" y="550.8"/>
      </g>
     </g>
     <g id="line2d_17">
      <g>
       <use style="fill:#262626;stroke:#262626;" x="340.953023588" xlink:href="#m32404be10e" y="171.898497496"/>
      </g>
     </g>
     <g id="text_6">
      <!-- 15 -->
      <g style="fill:#262626;" transform="translate(328.228023588 578.996875)scale(0.2 -0.2)">
       <use xlink:href="#DejaVuSerif-31"/>
       <use x="63.623046875" xlink:href="#DejaVuSerif-35"/>
      </g>
     </g>
    </g>
    <g id="xtick_7">
     <g id="line2d_18">
      <g>
       <use style="fill:#262626;stroke:#262626;" x="394.002629113" xlink:href="#m3c7821a1cc" y="550.8"/>
      </g>
     </g>
     <g id="line2d_19">
      <g>
       <use style="fill:#262626;stroke:#262626;" x="394.002629113" xlink:href="#m32404be10e" y="171.898497496"/>
      </g>
     </g>
     <g id="text_7">
      <!-- 20 -->
      <defs>
       <path d="M 12.796875 55.515625 
L 7.328125 55.515625 
L 7.328125 68.5 
Q 12.546875 71.296875 17.84375 72.75 
Q 23.140625 74.21875 28.21875 74.21875 
Q 39.59375 74.21875 46.1875 68.703125 
Q 52.78125 63.1875 52.78125 53.71875 
Q 52.78125 43.015625 37.84375 28.125 
Q 36.671875 27 36.078125 26.421875 
L 17.671875 8.015625 
L 48.09375 8.015625 
L 48.09375 17 
L 53.8125 17 
L 53.8125 0 
L 6.78125 0 
L 6.78125 5.328125 
L 28.90625 27.390625 
Q 36.234375 34.71875 39.359375 40.84375 
Q 42.484375 46.96875 42.484375 53.71875 
Q 42.484375 61.078125 38.640625 65.234375 
Q 34.8125 69.390625 28.078125 69.390625 
Q 21.09375 69.390625 17.28125 65.921875 
Q 13.484375 62.453125 12.796875 55.515625 
" id="DejaVuSerif-32"/>
      </defs>
      <g style="fill:#262626;" transform="translate(381.277629113 578.996875)scale(0.2 -0.2)">
       <use xlink:href="#DejaVuSerif-32"/>
       <use x="63.623046875" xlink:href="#DejaVuSerif-30"/>
      </g>
     </g>
    </g>
    <g id="xtick_8">
     <g id="line2d_20">
      <g>
       <use style="fill:#262626;stroke:#262626;" x="447.052234638" xlink:href="#m3c7821a1cc" y="550.8"/>
      </g>
     </g>
     <g id="line2d_21">
      <g>
       <use style="fill:#262626;stroke:#262626;" x="447.052234638" xlink:href="#m32404be10e" y="171.898497496"/>
      </g>
     </g>
     <g id="text_8">
      <!-- 25 -->
      <g style="fill:#262626;" transform="translate(434.327234638 578.996875)scale(0.2 -0.2)">
       <use xlink:href="#DejaVuSerif-32"/>
       <use x="63.623046875" xlink:href="#DejaVuSerif-35"/>
      </g>
     </g>
    </g>
    <g id="xtick_9">
     <g id="line2d_22">
      <g>
       <use style="fill:#262626;stroke:#262626;" x="500.101840164" xlink:href="#m3c7821a1cc" y="550.8"/>
      </g>
     </g>
     <g id="line2d_23">
      <g>
       <use style="fill:#262626;stroke:#262626;" x="500.101840164" xlink:href="#m32404be10e" y="171.898497496"/>
      </g>
     </g>
     <g id="text_9">
      <!-- 30 -->
      <defs>
       <path d="M 9.71875 69.828125 
Q 15.4375 71.96875 20.671875 73.09375 
Q 25.921875 74.21875 30.515625 74.21875 
Q 41.21875 74.21875 47.21875 69.59375 
Q 53.21875 64.984375 53.21875 56.78125 
Q 53.21875 50.203125 49.0625 45.78125 
Q 44.921875 41.359375 37.3125 39.796875 
Q 46.296875 38.53125 51.25 33.28125 
Q 56.203125 28.03125 56.203125 19.671875 
Q 56.203125 9.46875 49.34375 4.015625 
Q 42.484375 -1.421875 29.59375 -1.421875 
Q 23.875 -1.421875 18.421875 -0.1875 
Q 12.984375 1.03125 7.625 3.515625 
L 7.625 17.671875 
L 13.09375 17.671875 
Q 13.578125 10.640625 17.828125 7.03125 
Q 22.078125 3.421875 29.78125 3.421875 
Q 37.25 3.421875 41.578125 7.734375 
Q 45.90625 12.0625 45.90625 19.578125 
Q 45.90625 28.171875 41.453125 32.59375 
Q 37.015625 37.015625 28.421875 37.015625 
L 23.78125 37.015625 
L 23.78125 42 
L 26.21875 42 
Q 34.765625 42 39.03125 45.53125 
Q 43.3125 49.078125 43.3125 56.203125 
Q 43.3125 62.59375 39.796875 65.984375 
Q 36.28125 69.390625 29.6875 69.390625 
Q 23.09375 69.390625 19.453125 66.265625 
Q 15.828125 63.140625 15.1875 56.984375 
L 9.71875 56.984375 
z
" id="DejaVuSerif-33"/>
      </defs>
      <g style="fill:#262626;" transform="translate(487.376840164 578.996875)scale(0.2 -0.2)">
       <use xlink:href="#DejaVuSerif-33"/>
       <use x="63.623046875" xlink:href="#DejaVuSerif-30"/>
      </g>
     </g>
    </g>
    <g id="xtick_10">
     <g id="line2d_24">
      <g>
       <use style="fill:#262626;stroke:#262626;" x="553.151445689" xlink:href="#m3c7821a1cc" y="550.8"/>
      </g>
     </g>
     <g id="line2d_25">
      <g>
       <use style="fill:#262626;stroke:#262626;" x="553.151445689" xlink:href="#m32404be10e" y="171.898497496"/>
      </g>
     </g>
     <g id="text_10">
      <!-- 35 -->
      <g style="fill:#262626;" transform="translate(540.426445689 578.996875)scale(0.2 -0.2)">
       <use xlink:href="#DejaVuSerif-33"/>
       <use x="63.623046875" xlink:href="#DejaVuSerif-35"/>
      </g>
     </g>
    </g>
    <g id="text_11">
     <!-- x (μm) -->
     <defs>
      <path d="M 36.078125 51.90625 
L 52.875 51.90625 
L 52.875 5.078125 
L 61.375 5.078125 
L 61.375 0 
L 43.890625 0 
L 43.890625 9.1875 
Q 41.359375 4 37.765625 1.28125 
Q 34.1875 -1.421875 29.78125 -1.421875 
Q 27 -1.421875 24.703125 -0.53125 
Q 22.40625 0.34375 20.515625 2.09375 
L 20.515625 -20.796875 
L 11.53125 -20.796875 
L 11.53125 46.6875 
L 3.421875 46.6875 
L 3.421875 51.90625 
L 20.515625 51.90625 
L 20.515625 21.6875 
Q 20.515625 12.203125 22.859375 8.6875 
Q 25.203125 5.171875 31.109375 5.171875 
Q 37.359375 5.171875 40.625 9.765625 
Q 43.890625 14.359375 43.890625 23.09375 
L 43.890625 46.6875 
L 36.078125 46.6875 
z
" id="DejaVuSerif-3bc"/>
      <path d="M 29.109375 31.6875 
L 39.984375 46.6875 
L 33.015625 46.6875 
L 33.015625 51.90625 
L 52.984375 51.90625 
L 52.984375 46.6875 
L 46.09375 46.6875 
L 32.171875 27.484375 
L 48.390625 5.171875 
L 55.171875 5.171875 
L 55.171875 0 
L 31.203125 0 
L 31.203125 5.171875 
L 37.796875 5.171875 
L 26.515625 20.703125 
L 15.1875 5.171875 
L 21.921875 5.171875 
L 21.921875 0 
L 2.203125 0 
L 2.203125 5.171875 
L 9.078125 5.171875 
L 23.390625 24.90625 
L 7.625 46.6875 
L 1.21875 46.6875 
L 1.21875 51.90625 
L 24.421875 51.90625 
L 24.421875 46.6875 
L 18.21875 46.6875 
z
" id="DejaVuSerif-78"/>
      <path d="M 51.8125 41.796875 
Q 54.390625 47.515625 58.421875 50.421875 
Q 62.453125 53.328125 67.828125 53.328125 
Q 75.984375 53.328125 79.984375 48.265625 
Q 83.984375 43.21875 83.984375 33.015625 
L 83.984375 5.171875 
L 92.09375 5.171875 
L 92.09375 0 
L 67.1875 0 
L 67.1875 5.171875 
L 75 5.171875 
L 75 31.984375 
Q 75 39.9375 72.65625 43.3125 
Q 70.3125 46.6875 64.890625 46.6875 
Q 58.890625 46.6875 55.734375 42.140625 
Q 52.59375 37.59375 52.59375 28.90625 
L 52.59375 5.171875 
L 60.40625 5.171875 
L 60.40625 0 
L 35.796875 0 
L 35.796875 5.171875 
L 43.609375 5.171875 
L 43.609375 32.328125 
Q 43.609375 40.09375 41.265625 43.390625 
Q 38.921875 46.6875 33.5 46.6875 
Q 27.484375 46.6875 24.328125 42.140625 
Q 21.1875 37.59375 21.1875 28.90625 
L 21.1875 5.171875 
L 29 5.171875 
L 29 0 
L 4.109375 0 
L 4.109375 5.171875 
L 12.203125 5.171875 
L 12.203125 46.78125 
L 3.609375 46.78125 
L 3.609375 51.90625 
L 21.1875 51.90625 
L 21.1875 42.671875 
Q 23.6875 47.859375 27.53125 50.59375 
Q 31.390625 53.328125 36.28125 53.328125 
Q 42.328125 53.328125 46.375 50.3125 
Q 50.4375 47.3125 51.8125 41.796875 
" id="DejaVuSerif-6d"/>
      <path id="DejaVuSerif-20"/>
      <path d="M 31.890625 -15.578125 
Q 20.015625 -10.25 13.953125 1.296875 
Q 7.90625 12.84375 7.90625 30.171875 
Q 7.90625 47.5625 13.953125 59.109375 
Q 20.015625 70.65625 31.890625 75.984375 
L 31.890625 71.1875 
Q 24.359375 66.015625 21.09375 56.609375 
Q 17.828125 47.21875 17.828125 30.171875 
Q 17.828125 13.1875 21.09375 3.78125 
Q 24.359375 -5.609375 31.890625 -10.796875 
z
" id="DejaVuSerif-28"/>
      <path d="M 7.078125 -15.578125 
L 7.078125 -10.796875 
Q 14.59375 -5.609375 17.890625 3.78125 
Q 21.1875 13.1875 21.1875 30.171875 
Q 21.1875 47.21875 17.890625 56.609375 
Q 14.59375 66.015625 7.078125 71.1875 
L 7.078125 75.984375 
Q 19 70.65625 25.046875 59.109375 
Q 31.109375 47.5625 31.109375 30.171875 
Q 31.109375 12.84375 25.046875 1.296875 
Q 19 -10.25 7.078125 -15.578125 
" id="DejaVuSerif-29"/>
     </defs>
     <g style="fill:#262626;" transform="translate(335.393239514 604.8728125)scale(0.22 -0.22)">
      <use xlink:href="#DejaVuSerif-78"/>
      <use x="56.396484375" xlink:href="#DejaVuSerif-20"/>
      <use x="88.18359375" xlink:href="#DejaVuSerif-28"/>
      <use x="127.197265625" xlink:href="#DejaVuSerif-3bc"/>
      <use x="192.1875" xlink:href="#DejaVuSerif-6d"/>
      <use x="287.01171875" xlink:href="#DejaVuSerif-29"/>
     </g>
    </g>
   </g>
   <g id="matplotlib.axis_4">
    <g id="ytick_3">
     <g id="line2d_26">
      <defs>
       <path d="M 0 0 
L -6 0 
" id="md4dcef8bdc" style="stroke:#262626;"/>
      </defs>
      <g>
       <use style="fill:#262626;stroke:#262626;" x="181.804207012" xlink:href="#md4dcef8bdc" y="550.8"/>
      </g>
     </g>
     <g id="line2d_27">
      <defs>
       <path d="M 0 0 
L 6 0 
" id="m8ecf527aae" style="stroke:#262626;"/>
      </defs>
      <g>
       <use style="fill:#262626;stroke:#262626;" x="560.705709516" xlink:href="#m8ecf527aae" y="550.8"/>
      </g>
     </g>
     <g id="text_12">
      <!-- 0 -->
      <g style="fill:#262626;" transform="translate(156.079207012 556.31875)scale(0.2 -0.2)">
       <use xlink:href="#DejaVuSerif-30"/>
      </g>
     </g>
    </g>
    <g id="ytick_4">
     <g id="line2d_28">
      <g>
       <use style="fill:#262626;stroke:#262626;" x="181.804207012" xlink:href="#md4dcef8bdc" y="497.750394475"/>
      </g>
     </g>
     <g id="line2d_29">
      <g>
       <use style="fill:#262626;stroke:#262626;" x="560.705709516" xlink:href="#m8ecf527aae" y="497.750394475"/>
      </g>
     </g>
     <g id="text_13">
      <!-- 5 -->
      <g style="fill:#262626;" transform="translate(156.079207012 503.269144475)scale(0.2 -0.2)">
       <use xlink:href="#DejaVuSerif-35"/>
      </g>
     </g>
    </g>
    <g id="ytick_5">
     <g id="line2d_30">
      <g>
       <use style="fill:#262626;stroke:#262626;" x="181.804207012" xlink:href="#md4dcef8bdc" y="444.700788949"/>
      </g>
     </g>
     <g id="line2d_31">
      <g>
       <use style="fill:#262626;stroke:#262626;" x="560.705709516" xlink:href="#m8ecf527aae" y="444.700788949"/>
      </g>
     </g>
     <g id="text_14">
      <!-- 10 -->
      <g style="fill:#262626;" transform="translate(143.354207012 450.219538949)scale(0.2 -0.2)">
       <use xlink:href="#DejaVuSerif-31"/>
       <use x="63.623046875" xlink:href="#DejaVuSerif-30"/>
      </g>
     </g>
    </g>
    <g id="ytick_6">
     <g id="line2d_32">
      <g>
       <use style="fill:#262626;stroke:#262626;" x="181.804207012" xlink:href="#md4dcef8bdc" y="391.651183424"/>
      </g>
     </g>
     <g id="line2d_33">
      <g>
       <use style="fill:#262626;stroke:#262626;" x="560.705709516" xlink:href="#m8ecf527aae" y="391.651183424"/>
      </g>
     </g>
     <g id="text_15">
      <!-- 15 -->
      <g style="fill:#262626;" transform="translate(143.354207012 397.169933424)scale(0.2 -0.2)">
       <use xlink:href="#DejaVuSerif-31"/>
       <use x="63.623046875" xlink:href="#DejaVuSerif-35"/>
      </g>
     </g>
    </g>
    <g id="ytick_7">
     <g id="line2d_34">
      <g>
       <use style="fill:#262626;stroke:#262626;" x="181.804207012" xlink:href="#md4dcef8bdc" y="338.601577899"/>
      </g>
     </g>
     <g id="line2d_35">
      <g>
       <use style="fill:#262626;stroke:#262626;" x="560.705709516" xlink:href="#m8ecf527aae" y="338.601577899"/>
      </g>
     </g>
     <g id="text_16">
      <!-- 20 -->
      <g style="fill:#262626;" transform="translate(143.354207012 344.120327899)scale(0.2 -0.2)">
       <use xlink:href="#DejaVuSerif-32"/>
       <use x="63.623046875" xlink:href="#DejaVuSerif-30"/>
      </g>
     </g>
    </g>
    <g id="ytick_8">
     <g id="line2d_36">
      <g>
       <use style="fill:#262626;stroke:#262626;" x="181.804207012" xlink:href="#md4dcef8bdc" y="285.551972373"/>
      </g>
     </g>
     <g id="line2d_37">
      <g>
       <use style="fill:#262626;stroke:#262626;" x="560.705709516" xlink:href="#m8ecf527aae" y="285.551972373"/>
      </g>
     </g>
     <g id="text_17">
      <!-- 25 -->
      <g style="fill:#262626;" transform="translate(143.354207012 291.070722373)scale(0.2 -0.2)">
       <use xlink:href="#DejaVuSerif-32"/>
       <use x="63.623046875" xlink:href="#DejaVuSerif-35"/>
      </g>
     </g>
    </g>
    <g id="ytick_9">
     <g id="line2d_38">
      <g>
       <use style="fill:#262626;stroke:#262626;" x="181.804207012" xlink:href="#md4dcef8bdc" y="232.502366848"/>
      </g>
     </g>
     <g id="line2d_39">
      <g>
       <use style="fill:#262626;stroke:#262626;" x="560.705709516" xlink:href="#m8ecf527aae" y="232.502366848"/>
      </g>
     </g>
     <g id="text_18">
      <!-- 30 -->
      <g style="fill:#262626;" transform="translate(143.354207012 238.021116848)scale(0.2 -0.2)">
       <use xlink:href="#DejaVuSerif-33"/>
       <use x="63.623046875" xlink:href="#DejaVuSerif-30"/>
      </g>
     </g>
    </g>
    <g id="ytick_10">
     <g id="line2d_40">
      <g>
       <use style="fill:#262626;stroke:#262626;" x="181.804207012" xlink:href="#md4dcef8bdc" y="179.452761323"/>
      </g>
     </g>
     <g id="line2d_41">
      <g>
       <use style="fill:#262626;stroke:#262626;" x="560.705709516" xlink:href="#m8ecf527aae" y="179.452761323"/>
      </g>
     </g>
     <g id="text_19">
      <!-- 35 -->
      <g style="fill:#262626;" transform="translate(143.354207012 184.971511323)scale(0.2 -0.2)">
       <use xlink:href="#DejaVuSerif-33"/>
       <use x="63.623046875" xlink:href="#DejaVuSerif-35"/>
      </g>
     </g>
    </g>
    <g id="text_20">
     <!-- y (μm) -->
     <defs>
      <path d="M 21.578125 -9.515625 
L 25 -0.875 
L 5.609375 46.6875 
L -0.296875 46.6875 
L -0.296875 51.90625 
L 23.578125 51.90625 
L 23.578125 46.6875 
L 15.28125 46.6875 
L 29.890625 10.984375 
L 44.484375 46.6875 
L 36.71875 46.6875 
L 36.71875 51.90625 
L 56.203125 51.90625 
L 56.203125 46.6875 
L 50.390625 46.6875 
L 26.609375 -11.71875 
Q 24.171875 -17.78125 21.1875 -20 
Q 18.21875 -22.21875 12.796875 -22.21875 
Q 10.5 -22.21875 8.078125 -21.828125 
Q 5.671875 -21.4375 3.21875 -20.703125 
L 3.21875 -10.796875 
L 7.8125 -10.796875 
Q 8.109375 -14.109375 9.5 -15.546875 
Q 10.890625 -17 13.8125 -17 
Q 16.5 -17 18.140625 -15.5 
Q 19.78125 -14.015625 21.578125 -9.515625 
" id="DejaVuSerif-79"/>
     </defs>
     <g style="fill:#262626;" transform="translate(133.466082012 397.222998748)rotate(-90.0)scale(0.22 -0.22)">
      <use xlink:href="#DejaVuSerif-79"/>
      <use x="56.494140625" xlink:href="#DejaVuSerif-20"/>
      <use x="88.28125" xlink:href="#DejaVuSerif-28"/>
      <use x="127.294921875" xlink:href="#DejaVuSerif-3bc"/>
      <use x="192.28515625" xlink:href="#DejaVuSerif-6d"/>
      <use x="287.109375" xlink:href="#DejaVuSerif-29"/>
     </g>
    </g>
   </g>
   <g id="PathCollection_1">
    <path clip-path="url(#pd102cf842d)" d="M 380.888047 544.619501 
L 387.310107 548.571986 
L 393.732166 550.531113 
L 400.154225 547.055441 
L 402.842627 550.8 
L 406.576285 550.8 
L 412.998344 550.8 
L 419.420403 550.8 
L 425.842463 550.8 
L 432.264522 550.8 
L 438.686582 550.8 
L 445.108641 550.8 
L 451.5307 550.8 
L 457.95276 550.8 
L 464.374819 550.8 
L 470.796878 550.8 
L 477.218938 550.8 
L 483.640997 550.8 
L 490.063057 550.8 
L 496.485116 550.8 
L 501.338871 550.8 
L 502.907175 550.081693 
L 509.329235 550.075404 
L 512.352551 550.8 
L 515.751294 550.8 
L 522.173353 550.8 
L 526.119143 550.8 
L 528.595413 550.028703 
L 531.071682 550.8 
L 535.017472 550.8 
L 540.372473 550.8 
L 541.439531 550.25677 
L 541.564022 550.8 
L 547.861591 550.8 
L 554.081412 550.8 
L 554.28365 545.885618 
L 557.174463 550.8 
L 560.70571 550.8 
L 560.70571 544.377941 
L 560.70571 537.955881 
L 560.70571 535.230057 
L 554.28365 536.443882 
L 547.861591 533.796301 
L 541.439531 534.404951 
L 535.017472 534.771118 
L 528.595413 535.158494 
L 522.173353 534.3096 
L 515.751294 534.653997 
L 509.329235 533.556732 
L 502.907175 532.265115 
L 496.485116 532.753108 
L 490.063057 534.430732 
L 483.753556 531.533822 
L 486.342123 525.111763 
L 490.063057 524.511191 
L 496.485116 524.105824 
L 502.907175 523.720194 
L 509.329235 520.996585 
L 515.751294 521.854189 
L 522.173353 521.689977 
L 524.613991 518.689703 
L 522.173353 517.413164 
L 515.751294 517.574064 
L 509.329235 517.861592 
L 502.907175 517.187882 
L 496.485116 517.050757 
L 490.063057 515.819246 
L 483.640997 518.152434 
L 477.218938 518.286327 
L 470.796878 517.732661 
L 464.374819 518.105116 
L 460.691919 518.689703 
L 463.314358 525.111763 
L 464.374819 526.102193 
L 470.796878 530.669416 
L 474.610159 525.111763 
L 477.218938 521.050369 
L 481.984307 525.111763 
L 483.441934 531.533822 
L 477.218938 532.991704 
L 470.796878 531.781548 
L 464.374819 532.991424 
L 457.95276 532.276499 
L 455.981291 531.533822 
L 451.5307 528.572744 
L 447.725791 531.533822 
L 445.108641 532.634279 
L 438.686582 533.051481 
L 432.264522 533.209769 
L 425.842463 533.183238 
L 419.420403 534.09733 
L 412.998344 532.645309 
L 406.576285 533.914051 
L 400.154225 535.16503 
L 393.732166 534.359171 
L 387.310107 535.390406 
L 380.888047 535.484201 
L 374.465988 535.902875 
L 368.043929 536.794011 
L 361.621869 535.693649 
L 355.792906 537.955881 
L 361.621869 541.687508 
L 368.043929 541.72749 
L 374.465988 542.101952 
L 380.605168 544.377941 
z
" style="fill:#100000;"/>
    <path clip-path="url(#pd102cf842d)" d="M 201.070385 539.884101 
L 204.449193 537.955881 
L 201.070385 536.856508 
L 197.423949 537.955881 
z
" style="fill:#100000;"/>
    <path clip-path="url(#pd102cf842d)" d="M 220.336563 538.821459 
L 222.456344 537.955881 
L 220.336563 537.308721 
L 218.903884 537.955881 
z
" style="fill:#100000;"/>
    <path clip-path="url(#pd102cf842d)" d="M 265.290979 541.381505 
L 270.893635 537.955881 
L 265.290979 536.571391 
L 261.825752 537.955881 
z
" style="fill:#100000;"/>
    <path clip-path="url(#pd102cf842d)" d="M 316.667454 538.708275 
L 323.089513 538.964321 
L 329.511572 537.995582 
L 329.766123 537.955881 
L 329.511572 537.931364 
L 323.089513 537.377222 
L 316.667454 537.70572 
L 316.055258 537.955881 
z
" style="fill:#100000;"/>
    <path clip-path="url(#pd102cf842d)" d="M 342.355691 541.090868 
L 348.77775 541.439903 
L 354.755798 537.955881 
L 348.77775 534.690261 
L 342.355691 536.334087 
L 337.410359 537.955881 
z
" style="fill:#100000;"/>
    <path clip-path="url(#pd102cf842d)" d="M 535.017472 521.024285 
L 541.439531 521.030849 
L 545.313064 518.689703 
L 541.439531 517.58298 
L 535.017472 517.869753 
L 533.062939 518.689703 
z
" style="fill:#100000;"/>
    <path clip-path="url(#pd102cf842d)" d="M 554.28365 520.283835 
L 560.70571 520.821364 
L 560.70571 518.689703 
L 560.70571 517.153554 
L 554.28365 517.684514 
L 550.66497 518.689703 
z
" style="fill:#100000;"/>
    <path clip-path="url(#pd102cf842d)" d="M 535.017472 494.898335 
L 541.439531 495.792414 
L 547.861591 497.268139 
L 554.28365 497.760893 
L 560.70571 497.964739 
L 560.70571 493.001466 
L 560.70571 486.579406 
L 560.70571 481.903212 
L 554.28365 482.380314 
L 547.861591 482.667409 
L 541.439531 486.532113 
L 541.078918 486.579406 
L 535.017472 488.468688 
L 531.78577 493.001466 
z
" style="fill:#100000;"/>
    <path clip-path="url(#pd102cf842d)" d="M 547.861591 476.552672 
L 552.994633 473.735288 
L 547.861591 470.265731 
L 543.651342 473.735288 
z
" style="fill:#100000;"/>
    <path clip-path="url(#pd102cf842d)" d="M 560.70571 477.700203 
L 560.70571 473.735288 
L 560.70571 467.313228 
L 560.70571 465.201397 
L 560.124547 467.313228 
L 555.243836 473.735288 
z
" style="fill:#100000;"/>
    <path clip-path="url(#pd102cf842d)" d="M 535.017472 467.356164 
L 535.035924 467.313228 
L 535.017472 466.994277 
L 535.00141 467.313228 
z
" style="fill:#100000;"/>
    <path clip-path="url(#pd102cf842d)" d="M 547.861591 295.911593 
L 554.28365 295.023332 
L 560.70571 297.408431 
L 560.70571 293.917625 
L 560.70571 287.495566 
L 560.70571 281.073507 
L 560.70571 276.652534 
L 554.28365 276.596766 
L 547.861591 279.768798 
L 545.387143 281.073507 
L 541.439531 284.490842 
L 539.970068 287.495566 
L 541.439531 290.456103 
L 543.434307 293.917625 
z
" style="fill:#100000;"/>
    <path clip-path="url(#pd102cf842d)" d="M 554.28365 264.711894 
L 559.433366 261.807329 
L 557.550711 255.385269 
L 554.28365 249.735175 
L 551.773591 255.385269 
L 550.246797 261.807329 
z
" style="fill:#100000;"/>
    <path clip-path="url(#pd102cf842d)" d="M 207.492444 243.05719 
L 210.777896 242.541151 
L 211.811028 236.119091 
L 213.914504 235.649914 
L 219.924434 236.119091 
L 215.56535 242.541151 
L 220.336563 244.230338 
L 226.758623 243.79667 
L 229.792795 242.541151 
L 226.758623 239.347285 
L 220.625054 236.119091 
L 226.758623 235.24702 
L 233.180682 234.692355 
L 239.602741 234.912857 
L 246.024801 235.548051 
L 250.924696 236.119091 
L 246.356409 242.541151 
L 252.44686 243.858005 
L 255.807109 242.541151 
L 258.868919 240.17335 
L 261.643685 242.541151 
L 265.290979 243.652707 
L 271.713038 243.882792 
L 272.296676 242.541151 
L 272.713267 236.119091 
L 278.135097 232.887255 
L 284.557157 234.611475 
L 290.979216 233.863931 
L 297.401276 235.060419 
L 303.823335 235.824112 
L 310.245394 233.877632 
L 316.667454 232.062642 
L 323.089513 232.192557 
L 329.511572 230.718855 
L 335.307775 229.697032 
L 335.933632 229.310865 
L 337.10459 229.697032 
L 342.355691 230.060389 
L 345.42709 229.697032 
L 348.77775 227.745548 
L 353.400732 223.274972 
L 355.19981 222.673 
L 361.621869 219.95923 
L 368.043929 217.231678 
L 374.465988 218.695036 
L 378.637855 216.852913 
L 380.888047 215.189727 
L 386.074932 216.852913 
L 387.310107 217.041709 
L 387.893109 216.852913 
L 393.732166 213.109928 
L 400.154225 212.734035 
L 406.576285 211.125927 
L 407.786228 210.430854 
L 407.411957 204.008794 
L 412.102191 197.586735 
L 412.998344 194.639389 
L 415.325197 197.586735 
L 419.420403 199.1124 
L 425.842463 198.89241 
L 427.494221 197.586735 
L 426.813656 191.164676 
L 432.264522 186.342755 
L 436.587623 191.164676 
L 436.388845 197.586735 
L 438.686582 199.440371 
L 441.588985 197.586735 
L 445.108641 194.324615 
L 451.5307 192.836577 
L 456.426983 191.164676 
L 457.95276 191.047949 
L 458.620287 191.164676 
L 464.374819 195.302766 
L 467.753627 191.164676 
L 470.796878 190.393247 
L 474.842176 191.164676 
L 477.218938 194.163052 
L 481.123138 197.586735 
L 483.640997 198.690719 
L 490.063057 198.922776 
L 496.485116 197.737503 
L 501.668002 204.008794 
L 501.437654 210.430854 
L 502.907175 210.699324 
L 503.220893 210.430854 
L 504.88007 204.008794 
L 509.329235 201.921532 
L 513.778399 204.008794 
L 514.659062 210.430854 
L 515.751294 211.668717 
L 520.15297 216.852913 
L 522.173353 218.271195 
L 528.595413 223.230404 
L 528.671584 223.274972 
L 528.595413 223.336581 
L 526.244811 229.697032 
L 528.595413 231.061419 
L 535.017472 230.475121 
L 541.439531 230.778007 
L 547.861591 232.464872 
L 554.28365 232.842907 
L 560.70571 233.093685 
L 560.70571 229.697032 
L 560.70571 223.274972 
L 560.70571 216.852913 
L 560.70571 210.430854 
L 560.70571 204.008794 
L 560.70571 197.586735 
L 560.70571 191.164676 
L 560.70571 184.742616 
L 560.70571 178.320557 
L 560.70571 171.898497 
L 554.28365 171.898497 
L 547.861591 171.898497 
L 541.439531 171.898497 
L 535.017472 171.898497 
L 528.595413 171.898497 
L 522.173353 171.898497 
L 515.751294 171.898497 
L 509.329235 171.898497 
L 502.907175 171.898497 
L 496.485116 171.898497 
L 490.063057 171.898497 
L 483.640997 171.898497 
L 477.218938 171.898497 
L 470.796878 171.898497 
L 464.374819 171.898497 
L 457.95276 171.898497 
L 451.5307 171.898497 
L 445.108641 171.898497 
L 438.686582 171.898497 
L 432.264522 171.898497 
L 425.842463 171.898497 
L 419.420403 171.898497 
L 412.998344 171.898497 
L 406.576285 171.898497 
L 400.154225 171.898497 
L 393.732166 171.898497 
L 387.310107 171.898497 
L 380.888047 171.898497 
L 374.465988 171.898497 
L 368.043929 171.898497 
L 361.621869 171.898497 
L 355.19981 171.898497 
L 348.77775 171.898497 
L 342.355691 171.898497 
L 335.933632 171.898497 
L 329.511572 171.898497 
L 323.089513 171.898497 
L 316.667454 171.898497 
L 310.245394 171.898497 
L 303.823335 171.898497 
L 297.401276 171.898497 
L 290.979216 171.898497 
L 284.557157 171.898497 
L 278.135097 171.898497 
L 271.713038 171.898497 
L 265.290979 171.898497 
L 258.868919 171.898497 
L 252.44686 171.898497 
L 246.024801 171.898497 
L 239.602741 171.898497 
L 233.180682 171.898497 
L 226.758623 171.898497 
L 220.336563 171.898497 
L 213.914504 171.898497 
L 207.492444 171.898497 
L 201.070385 171.898497 
L 194.648326 171.898497 
L 188.226266 171.898497 
L 181.804207 171.898497 
L 181.804207 178.320557 
L 181.804207 184.742616 
L 181.804207 191.164676 
L 181.804207 197.586735 
L 181.804207 204.008794 
L 181.804207 210.430854 
L 181.804207 216.852913 
L 181.804207 223.274972 
L 181.804207 229.697032 
L 181.804207 236.119091 
L 181.804207 240.29643 
L 185.415127 236.119091 
L 188.226266 234.664203 
L 194.648326 235.478177 
L 201.070385 233.707468 
L 205.765011 236.119091 
L 206.620201 242.541151 
z
M 226.229424 204.008794 
L 226.758623 203.305429 
L 231.723203 197.586735 
L 233.180682 195.546264 
L 235.746477 191.164676 
L 239.602741 189.92755 
L 246.024801 188.359255 
L 251.684171 184.742616 
L 252.44686 184.061869 
L 252.892106 184.742616 
L 258.342009 191.164676 
L 255.170176 197.586735 
L 256.066023 204.008794 
L 252.44686 204.562313 
L 246.024801 205.611445 
L 239.602741 205.64747 
L 233.180682 205.252688 
L 226.758623 204.28802 
z
M 260.838522 204.008794 
L 265.290979 200.503669 
L 270.605201 204.008794 
L 265.290979 205.229097 
z
M 262.952477 191.164676 
L 265.290979 190.940628 
L 271.713038 191.092505 
L 272.191723 191.164676 
L 271.713038 191.897662 
L 265.290979 193.432314 
z
M 309.690566 191.164676 
L 310.245394 191.051655 
L 310.800222 191.164676 
L 310.245394 192.690453 
z
M 527.992219 191.164676 
L 528.595413 190.941694 
L 529.169182 191.164676 
L 528.595413 192.70727 
z
" style="fill:#100000;"/>
   </g>
   <g id="PathCollection_2">
    <path clip-path="url(#pd102cf842d)" d="M 188.226266 550.8 
L 194.648326 550.8 
L 201.070385 550.8 
L 207.492444 550.8 
L 213.914504 550.8 
L 220.336563 550.8 
L 226.758623 550.8 
L 233.180682 550.8 
L 239.602741 550.8 
L 246.024801 550.8 
L 252.44686 550.8 
L 258.868919 550.8 
L 265.290979 550.8 
L 271.713038 550.8 
L 278.135097 550.8 
L 284.557157 550.8 
L 290.979216 550.8 
L 297.401276 550.8 
L 303.823335 550.8 
L 310.245394 550.8 
L 316.667454 550.8 
L 323.089513 550.8 
L 329.511572 550.8 
L 335.933632 550.8 
L 342.355691 550.8 
L 348.77775 550.8 
L 355.19981 550.8 
L 361.621869 550.8 
L 368.043929 550.8 
L 374.465988 550.8 
L 380.888047 550.8 
L 387.310107 550.8 
L 393.732166 550.8 
L 400.154225 550.8 
L 402.842627 550.8 
L 400.154225 547.055441 
L 393.732166 550.531113 
L 387.310107 548.571986 
L 380.888047 544.619501 
L 380.605168 544.377941 
L 374.465988 542.101952 
L 368.043929 541.72749 
L 361.621869 541.687508 
L 355.792906 537.955881 
L 361.621869 535.693649 
L 368.043929 536.794011 
L 374.465988 535.902875 
L 380.888047 535.484201 
L 387.310107 535.390406 
L 393.732166 534.359171 
L 400.154225 535.16503 
L 406.576285 533.914051 
L 412.998344 532.645309 
L 419.420403 534.09733 
L 425.842463 533.183238 
L 432.264522 533.209769 
L 438.686582 533.051481 
L 445.108641 532.634279 
L 447.725791 531.533822 
L 451.5307 528.572744 
L 455.981291 531.533822 
L 457.95276 532.276499 
L 464.374819 532.991424 
L 470.796878 531.781548 
L 477.218938 532.991704 
L 483.441934 531.533822 
L 481.984307 525.111763 
L 477.218938 521.050369 
L 474.610159 525.111763 
L 470.796878 530.669416 
L 464.374819 526.102193 
L 463.314358 525.111763 
L 460.691919 518.689703 
L 464.374819 518.105116 
L 470.796878 517.732661 
L 477.218938 518.286327 
L 483.640997 518.152434 
L 490.063057 515.819246 
L 496.485116 517.050757 
L 502.907175 517.187882 
L 509.329235 517.861592 
L 515.751294 517.574064 
L 522.173353 517.413164 
L 524.613991 518.689703 
L 522.173353 521.689977 
L 515.751294 521.854189 
L 509.329235 520.996585 
L 502.907175 523.720194 
L 496.485116 524.105824 
L 490.063057 524.511191 
L 486.342123 525.111763 
L 483.753556 531.533822 
L 490.063057 534.430732 
L 496.485116 532.753108 
L 502.907175 532.265115 
L 509.329235 533.556732 
L 515.751294 534.653997 
L 522.173353 534.3096 
L 528.595413 535.158494 
L 535.017472 534.771118 
L 541.439531 534.404951 
L 547.861591 533.796301 
L 554.28365 536.443882 
L 560.70571 535.230057 
L 560.70571 531.533822 
L 560.70571 525.111763 
L 560.70571 520.821364 
L 554.28365 520.283835 
L 550.66497 518.689703 
L 554.28365 517.684514 
L 560.70571 517.153554 
L 560.70571 512.267644 
L 560.70571 505.845584 
L 560.70571 499.423525 
L 560.70571 497.964739 
L 554.28365 497.760893 
L 547.861591 497.268139 
L 541.439531 495.792414 
L 535.017472 494.898335 
L 531.78577 493.001466 
L 535.017472 488.468688 
L 541.078918 486.579406 
L 541.439531 486.532113 
L 547.861591 482.667409 
L 554.28365 482.380314 
L 560.70571 481.903212 
L 560.70571 480.157347 
L 560.70571 477.700203 
L 555.243836 473.735288 
L 560.124547 467.313228 
L 560.70571 465.201397 
L 560.70571 460.891169 
L 560.70571 454.46911 
L 560.70571 448.04705 
L 560.70571 441.624991 
L 560.70571 435.202931 
L 560.70571 428.780872 
L 560.70571 422.358813 
L 560.70571 415.936753 
L 560.70571 409.514694 
L 560.70571 403.092635 
L 560.70571 396.670575 
L 560.70571 390.248516 
L 560.70571 383.826457 
L 560.70571 377.404397 
L 560.70571 370.982338 
L 560.70571 364.560278 
L 560.70571 358.138219 
L 560.70571 351.71616 
L 560.70571 345.2941 
L 560.70571 338.872041 
L 560.70571 332.449982 
L 560.70571 326.027922 
L 560.70571 319.605863 
L 560.70571 313.183804 
L 560.70571 306.761744 
L 560.70571 300.339685 
L 560.70571 297.408431 
L 554.28365 295.023332 
L 547.861591 295.911593 
L 543.434307 293.917625 
L 541.439531 290.456103 
L 539.970068 287.495566 
L 541.439531 284.490842 
L 545.387143 281.073507 
L 547.861591 279.768798 
L 554.28365 276.596766 
L 560.70571 276.652534 
L 560.70571 274.651447 
L 560.70571 268.229388 
L 560.70571 261.807329 
L 560.70571 255.385269 
L 560.70571 248.96321 
L 560.70571 242.541151 
L 560.70571 236.119091 
L 560.70571 233.093685 
L 554.28365 232.842907 
L 547.861591 232.464872 
L 541.439531 230.778007 
L 535.017472 230.475121 
L 528.595413 231.061419 
L 526.244811 229.697032 
L 528.595413 223.336581 
L 528.671584 223.274972 
L 528.595413 223.230404 
L 522.173353 218.271195 
L 520.15297 216.852913 
L 515.751294 211.668717 
L 514.659062 210.430854 
L 513.778399 204.008794 
L 509.329235 201.921532 
L 504.88007 204.008794 
L 503.220893 210.430854 
L 502.907175 210.699324 
L 501.437654 210.430854 
L 501.668002 204.008794 
L 496.485116 197.737503 
L 490.063057 198.922776 
L 483.640997 198.690719 
L 481.123138 197.586735 
L 477.218938 194.163052 
L 474.842176 191.164676 
L 470.796878 190.393247 
L 467.753627 191.164676 
L 464.374819 195.302766 
L 458.620287 191.164676 
L 457.95276 191.047949 
L 456.426983 191.164676 
L 451.5307 192.836577 
L 445.108641 194.324615 
L 441.588985 197.586735 
L 438.686582 199.440371 
L 436.388845 197.586735 
L 436.587623 191.164676 
L 432.264522 186.342755 
L 426.813656 191.164676 
L 427.494221 197.586735 
L 425.842463 198.89241 
L 419.420403 199.1124 
L 415.325197 197.586735 
L 412.998344 194.639389 
L 412.102191 197.586735 
L 407.411957 204.008794 
L 407.786228 210.430854 
L 406.576285 211.125927 
L 400.154225 212.734035 
L 393.732166 213.109928 
L 387.893109 216.852913 
L 387.310107 217.041709 
L 386.074932 216.852913 
L 380.888047 215.189727 
L 378.637855 216.852913 
L 374.465988 218.695036 
L 368.043929 217.231678 
L 361.621869 219.95923 
L 355.19981 222.673 
L 353.400732 223.274972 
L 348.77775 227.745548 
L 345.42709 229.697032 
L 342.355691 230.060389 
L 337.10459 229.697032 
L 335.933632 229.310865 
L 335.307775 229.697032 
L 329.511572 230.718855 
L 323.089513 232.192557 
L 316.667454 232.062642 
L 310.245394 233.877632 
L 303.823335 235.824112 
L 297.401276 235.060419 
L 290.979216 233.863931 
L 284.557157 234.611475 
L 278.135097 232.887255 
L 272.713267 236.119091 
L 272.296676 242.541151 
L 271.713038 243.882792 
L 265.290979 243.652707 
L 261.643685 242.541151 
L 258.868919 240.17335 
L 255.807109 242.541151 
L 252.44686 243.858005 
L 246.356409 242.541151 
L 250.924696 236.119091 
L 246.024801 235.548051 
L 239.602741 234.912857 
L 233.180682 234.692355 
L 226.758623 235.24702 
L 220.625054 236.119091 
L 226.758623 239.347285 
L 229.792795 242.541151 
L 226.758623 243.79667 
L 220.336563 244.230338 
L 215.56535 242.541151 
L 219.924434 236.119091 
L 213.914504 235.649914 
L 211.811028 236.119091 
L 210.777896 242.541151 
L 207.492444 243.05719 
L 206.620201 242.541151 
L 205.765011 236.119091 
L 201.070385 233.707468 
L 194.648326 235.478177 
L 188.226266 234.664203 
L 185.415127 236.119091 
L 181.804207 240.29643 
L 181.804207 242.541151 
L 181.804207 248.96321 
L 181.804207 255.385269 
L 181.804207 261.807329 
L 181.804207 268.229388 
L 181.804207 274.651447 
L 181.804207 281.073507 
L 181.804207 287.495566 
L 181.804207 293.917625 
L 181.804207 300.339685 
L 181.804207 306.761744 
L 181.804207 313.183804 
L 181.804207 319.605863 
L 181.804207 326.027922 
L 181.804207 332.449982 
L 181.804207 338.872041 
L 181.804207 345.2941 
L 181.804207 351.71616 
L 181.804207 358.138219 
L 181.804207 364.560278 
L 181.804207 370.982338 
L 181.804207 377.404397 
L 181.804207 383.826457 
L 181.804207 390.248516 
L 181.804207 396.670575 
L 181.804207 403.092635 
L 181.804207 409.514694 
L 181.804207 415.936753 
L 181.804207 422.358813 
L 181.804207 428.780872 
L 181.804207 435.202931 
L 181.804207 441.624991 
L 181.804207 448.04705 
L 181.804207 454.46911 
L 181.804207 460.891169 
L 181.804207 467.313228 
L 181.804207 473.735288 
L 181.804207 480.157347 
L 181.804207 486.579406 
L 181.804207 493.001466 
L 181.804207 499.423525 
L 181.804207 505.845584 
L 181.804207 512.267644 
L 181.804207 518.689703 
L 181.804207 525.111763 
L 181.804207 531.533822 
L 181.804207 537.955881 
L 181.804207 544.377941 
L 181.804207 550.8 
z
M 197.423949 537.955881 
L 201.070385 536.856508 
L 204.449193 537.955881 
L 201.070385 539.884101 
z
M 218.903884 537.955881 
L 220.336563 537.308721 
L 222.456344 537.955881 
L 220.336563 538.821459 
z
M 261.825752 537.955881 
L 265.290979 536.571391 
L 270.893635 537.955881 
L 265.290979 541.381505 
z
M 316.055258 537.955881 
L 316.667454 537.70572 
L 323.089513 537.377222 
L 329.511572 537.931364 
L 329.766123 537.955881 
L 329.511572 537.995582 
L 323.089513 538.964321 
L 316.667454 538.708275 
z
M 337.410359 537.955881 
L 342.355691 536.334087 
L 348.77775 534.690261 
L 354.755798 537.955881 
L 348.77775 541.439903 
L 342.355691 541.090868 
z
M 533.062939 518.689703 
L 535.017472 517.869753 
L 541.439531 517.58298 
L 545.313064 518.689703 
L 541.439531 521.030849 
L 535.017472 521.024285 
z
M 543.651342 473.735288 
L 547.861591 470.265731 
L 552.994633 473.735288 
L 547.861591 476.552672 
z
M 535.00141 467.313228 
L 535.017472 466.994277 
L 535.035924 467.313228 
L 535.017472 467.356164 
z
M 334.412271 422.358813 
L 329.511572 421.926551 
L 323.089513 420.672652 
L 316.667454 419.908532 
L 310.245394 418.967314 
L 303.823335 417.613746 
L 297.401276 416.251414 
L 293.902326 415.936753 
L 290.979216 415.691447 
L 284.557157 414.322035 
L 278.135097 413.051423 
L 271.713038 411.093726 
L 265.290979 409.872392 
L 263.724959 409.514694 
L 258.868919 407.523718 
L 252.44686 405.251836 
L 249.774118 403.092635 
L 246.024801 401.037453 
L 239.602741 398.253331 
L 234.66315 396.670575 
L 233.180682 395.57379 
L 228.842876 390.248516 
L 228.767015 383.826457 
L 226.758623 381.231613 
L 223.53706 377.404397 
L 221.762114 370.982338 
L 220.336563 366.13788 
L 219.868832 364.560278 
L 220.336563 363.935591 
L 226.758623 358.599598 
L 227.064581 358.138219 
L 233.180682 353.22628 
L 235.529018 351.71616 
L 239.602741 349.111272 
L 244.875488 345.2941 
L 246.024801 344.672916 
L 252.44686 340.603468 
L 255.720781 338.872041 
L 258.868919 337.180915 
L 265.290979 333.029081 
L 266.361436 332.449982 
L 271.713038 329.165736 
L 277.108435 326.027922 
L 278.135097 325.565655 
L 284.557157 322.932116 
L 290.979216 320.219615 
L 292.644304 319.605863 
L 297.401276 317.779418 
L 303.823335 315.896558 
L 310.245394 314.308038 
L 313.767004 313.183804 
L 316.667454 311.963157 
L 323.089513 310.130265 
L 329.511572 308.229598 
L 335.822211 306.761744 
L 335.933632 306.72741 
L 342.355691 304.80472 
L 348.77775 303.386761 
L 355.19981 302.06791 
L 361.621869 300.538486 
L 362.61544 300.339685 
L 368.043929 298.965346 
L 374.465988 298.53411 
L 380.888047 297.871962 
L 387.310107 296.671571 
L 393.732166 295.842387 
L 400.154225 295.102289 
L 406.576285 294.884311 
L 412.998344 294.67224 
L 419.420403 294.494194 
L 425.842463 294.488744 
L 432.264522 296.202413 
L 438.686582 297.255785 
L 445.108641 299.461061 
L 447.336244 300.339685 
L 451.5307 301.849948 
L 457.95276 304.404572 
L 462.422983 306.761744 
L 464.374819 307.585853 
L 470.796878 310.851228 
L 474.820571 313.183804 
L 477.218938 314.233704 
L 483.640997 318.062318 
L 486.500542 319.605863 
L 490.063057 321.435788 
L 496.485116 324.684954 
L 498.671976 326.027922 
L 502.907175 330.103407 
L 505.134973 332.449982 
L 509.329235 336.446867 
L 511.632473 338.872041 
L 515.751294 342.551028 
L 519.694707 345.2941 
L 522.173353 348.481585 
L 524.223809 351.71616 
L 526.809092 358.138219 
L 527.829619 364.560278 
L 524.876141 370.982338 
L 522.173353 375.424184 
L 521.148916 377.404397 
L 516.364676 383.826457 
L 515.751294 384.739495 
L 510.317056 390.248516 
L 509.329235 390.835367 
L 502.907175 395.687238 
L 501.500686 396.670575 
L 496.485116 399.276118 
L 490.063057 402.147358 
L 485.983138 403.092635 
L 483.640997 403.876525 
L 477.218938 408.64423 
L 475.66368 409.514694 
L 470.796878 411.679226 
L 464.374819 413.451358 
L 457.95276 414.518585 
L 451.5307 415.876801 
L 451.238013 415.936753 
L 445.108641 417.197071 
L 438.686582 418.456202 
L 432.264522 419.520483 
L 425.842463 420.39151 
L 419.420403 421.133608 
L 412.998344 421.851677 
L 407.904727 422.358813 
L 406.576285 422.561866 
L 400.154225 423.866824 
L 393.732166 424.105309 
L 387.310107 424.679602 
L 380.888047 425.279267 
L 374.465988 425.413987 
L 368.043929 425.538571 
L 361.621869 425.403894 
L 355.19981 424.84173 
L 348.77775 424.074254 
L 342.355691 423.298185 
L 335.933632 422.555806 
z
M 550.246797 261.807329 
L 551.773591 255.385269 
L 554.28365 249.735175 
L 557.550711 255.385269 
L 559.433366 261.807329 
L 554.28365 264.711894 
z
" style="fill:#330000;"/>
    <path clip-path="url(#pd102cf842d)" d="M 502.907175 550.8 
L 509.329235 550.8 
L 512.352551 550.8 
L 509.329235 550.075404 
L 502.907175 550.081693 
L 501.338871 550.8 
z
" style="fill:#330000;"/>
    <path clip-path="url(#pd102cf842d)" d="M 528.595413 550.8 
L 531.071682 550.8 
L 528.595413 550.028703 
L 526.119143 550.8 
z
" style="fill:#330000;"/>
    <path clip-path="url(#pd102cf842d)" d="M 541.439531 550.8 
L 541.564022 550.8 
L 541.439531 550.25677 
L 540.372473 550.8 
z
" style="fill:#330000;"/>
    <path clip-path="url(#pd102cf842d)" d="M 554.28365 550.8 
L 557.174463 550.8 
L 554.28365 545.885618 
L 554.081412 550.8 
z
" style="fill:#330000;"/>
    <path clip-path="url(#pd102cf842d)" d="M 226.758623 204.28802 
L 233.180682 205.252688 
L 239.602741 205.64747 
L 246.024801 205.611445 
L 252.44686 204.562313 
L 256.066023 204.008794 
L 255.170176 197.586735 
L 258.342009 191.164676 
L 252.892106 184.742616 
L 252.44686 184.061869 
L 251.684171 184.742616 
L 246.024801 188.359255 
L 239.602741 189.92755 
L 235.746477 191.164676 
L 233.180682 195.546264 
L 231.723203 197.586735 
L 226.758623 203.305429 
L 226.229424 204.008794 
z
" style="fill:#330000;"/>
    <path clip-path="url(#pd102cf842d)" d="M 265.290979 205.229097 
L 270.605201 204.008794 
L 265.290979 200.503669 
L 260.838522 204.008794 
z
" style="fill:#330000;"/>
    <path clip-path="url(#pd102cf842d)" d="M 265.290979 193.432314 
L 271.713038 191.897662 
L 272.191723 191.164676 
L 271.713038 191.092505 
L 265.290979 190.940628 
L 262.952477 191.164676 
z
" style="fill:#330000;"/>
    <path clip-path="url(#pd102cf842d)" d="M 310.245394 192.690453 
L 310.800222 191.164676 
L 310.245394 191.051655 
L 309.690566 191.164676 
z
" style="fill:#330000;"/>
    <path clip-path="url(#pd102cf842d)" d="M 528.595413 192.70727 
L 529.169182 191.164676 
L 528.595413 190.941694 
L 527.992219 191.164676 
z
" style="fill:#330000;"/>
   </g>
   <g id="PathCollection_3">
    <path clip-path="url(#pd102cf842d)" d="M 335.933632 422.555806 
L 342.355691 423.298185 
L 348.77775 424.074254 
L 355.19981 424.84173 
L 361.621869 425.403894 
L 368.043929 425.538571 
L 374.465988 425.413987 
L 380.888047 425.279267 
L 387.310107 424.679602 
L 393.732166 424.105309 
L 400.154225 423.866824 
L 406.576285 422.561866 
L 407.904727 422.358813 
L 412.998344 421.851677 
L 419.420403 421.133608 
L 425.842463 420.39151 
L 432.264522 419.520483 
L 438.686582 418.456202 
L 445.108641 417.197071 
L 451.238013 415.936753 
L 451.5307 415.876801 
L 457.95276 414.518585 
L 464.374819 413.451358 
L 470.796878 411.679226 
L 475.66368 409.514694 
L 477.218938 408.64423 
L 483.640997 403.876525 
L 485.983138 403.092635 
L 490.063057 402.147358 
L 496.485116 399.276118 
L 501.500686 396.670575 
L 502.907175 395.687238 
L 509.329235 390.835367 
L 510.317056 390.248516 
L 515.751294 384.739495 
L 516.364676 383.826457 
L 521.148916 377.404397 
L 522.173353 375.424184 
L 524.876141 370.982338 
L 527.829619 364.560278 
L 526.809092 358.138219 
L 524.223809 351.71616 
L 522.173353 348.481585 
L 519.694707 345.2941 
L 515.751294 342.551028 
L 511.632473 338.872041 
L 509.329235 336.446867 
L 505.134973 332.449982 
L 502.907175 330.103407 
L 498.671976 326.027922 
L 496.485116 324.684954 
L 490.063057 321.435788 
L 486.500542 319.605863 
L 483.640997 318.062318 
L 477.218938 314.233704 
L 474.820571 313.183804 
L 470.796878 310.851228 
L 464.374819 307.585853 
L 462.422983 306.761744 
L 457.95276 304.404572 
L 451.5307 301.849948 
L 447.336244 300.339685 
L 445.108641 299.461061 
L 438.686582 297.255785 
L 432.264522 296.202413 
L 425.842463 294.488744 
L 419.420403 294.494194 
L 412.998344 294.67224 
L 406.576285 294.884311 
L 400.154225 295.102289 
L 393.732166 295.842387 
L 387.310107 296.671571 
L 380.888047 297.871962 
L 374.465988 298.53411 
L 368.043929 298.965346 
L 362.61544 300.339685 
L 361.621869 300.538486 
L 355.19981 302.06791 
L 348.77775 303.386761 
L 342.355691 304.80472 
L 335.933632 306.72741 
L 335.822211 306.761744 
L 329.511572 308.229598 
L 323.089513 310.130265 
L 316.667454 311.963157 
L 313.767004 313.183804 
L 310.245394 314.308038 
L 303.823335 315.896558 
L 297.401276 317.779418 
L 292.644304 319.605863 
L 290.979216 320.219615 
L 284.557157 322.932116 
L 278.135097 325.565655 
L 277.108435 326.027922 
L 271.713038 329.165736 
L 266.361436 332.449982 
L 265.290979 333.029081 
L 258.868919 337.180915 
L 255.720781 338.872041 
L 252.44686 340.603468 
L 246.024801 344.672916 
L 244.875488 345.2941 
L 239.602741 349.111272 
L 235.529018 351.71616 
L 233.180682 353.22628 
L 227.064581 358.138219 
L 226.758623 358.599598 
L 220.336563 363.935591 
L 219.868832 364.560278 
L 220.336563 366.13788 
L 221.762114 370.982338 
L 223.53706 377.404397 
L 226.758623 381.231613 
L 228.767015 383.826457 
L 228.842876 390.248516 
L 233.180682 395.57379 
L 234.66315 396.670575 
L 239.602741 398.253331 
L 246.024801 401.037453 
L 249.774118 403.092635 
L 252.44686 405.251836 
L 258.868919 407.523718 
L 263.724959 409.514694 
L 265.290979 409.872392 
L 271.713038 411.093726 
L 278.135097 413.051423 
L 284.557157 414.322035 
L 290.979216 415.691447 
L 293.902326 415.936753 
L 297.401276 416.251414 
L 303.823335 417.613746 
L 310.245394 418.967314 
L 316.667454 419.908532 
L 323.089513 420.672652 
L 329.511572 421.926551 
L 334.412271 422.358813 
z
M 321.420656 409.514694 
L 316.667454 408.362938 
L 310.245394 406.064019 
L 303.823335 403.822424 
L 302.044082 403.092635 
L 297.401276 401.352279 
L 290.979216 398.78631 
L 287.21507 396.670575 
L 284.557157 394.839112 
L 278.135097 390.806271 
L 277.212221 390.248516 
L 271.713038 385.065244 
L 270.696043 383.826457 
L 266.3185 377.404397 
L 265.290979 375.425828 
L 262.918335 370.982338 
L 261.273864 364.560278 
L 264.435897 358.138219 
L 265.290979 356.896651 
L 269.658179 351.71616 
L 271.713038 349.912073 
L 276.140317 345.2941 
L 278.135097 343.793108 
L 284.557157 339.236884 
L 285.073524 338.872041 
L 290.979216 334.956137 
L 295.202307 332.449982 
L 297.401276 331.177046 
L 303.823335 327.046891 
L 308.115304 326.027922 
L 310.245394 325.603013 
L 316.667454 323.054478 
L 323.089513 321.119117 
L 328.368825 319.605863 
L 329.511572 319.251277 
L 335.933632 317.385409 
L 342.355691 315.938233 
L 348.77775 314.781157 
L 355.19981 313.708797 
L 357.92392 313.183804 
L 361.621869 312.227813 
L 368.043929 311.2658 
L 374.465988 310.698729 
L 380.888047 310.20983 
L 387.310107 309.720095 
L 393.732166 309.231153 
L 400.154225 309.17604 
L 406.576285 309.608396 
L 412.998344 310.092226 
L 419.420403 310.406953 
L 425.842463 311.345272 
L 432.264522 311.495674 
L 436.081413 313.183804 
L 438.686582 314.233342 
L 445.108641 315.810459 
L 451.5307 318.303924 
L 454.461847 319.605863 
L 457.95276 321.024006 
L 464.374819 324.160605 
L 467.208074 326.027922 
L 470.796878 328.83488 
L 476.393718 332.449982 
L 477.218938 332.956885 
L 483.640997 337.941811 
L 484.763347 338.872041 
L 490.063057 344.15065 
L 491.228942 345.2941 
L 495.38631 351.71616 
L 496.485116 354.009446 
L 498.976844 358.138219 
L 499.52621 364.560278 
L 496.485116 369.640821 
L 495.778214 370.982338 
L 490.063057 377.208544 
L 489.901408 377.404397 
L 484.502269 383.826457 
L 483.640997 384.802041 
L 477.675012 390.248516 
L 477.218938 390.585772 
L 470.796878 395.020135 
L 468.06762 396.670575 
L 464.374819 398.530104 
L 457.95276 400.972085 
L 451.5307 403.054567 
L 451.419531 403.092635 
L 445.108641 405.596109 
L 438.686582 407.895164 
L 432.468561 409.514694 
L 432.264522 409.564002 
L 425.842463 410.915533 
L 419.420403 411.79618 
L 412.998344 412.773639 
L 406.576285 413.623113 
L 400.154225 414.438412 
L 393.732166 414.816758 
L 387.310107 415.150787 
L 380.888047 415.304897 
L 374.465988 415.512951 
L 368.043929 415.639486 
L 361.621869 415.460642 
L 355.19981 414.914235 
L 348.77775 414.28384 
L 342.355691 413.781121 
L 335.933632 412.827584 
L 329.511572 411.767792 
L 323.089513 409.902813 
z
" style="fill:#570000;"/>
   </g>
   <g id="PathCollection_4">
    <path clip-path="url(#pd102cf842d)" d="M 323.089513 409.902813 
L 329.511572 411.767792 
L 335.933632 412.827584 
L 342.355691 413.781121 
L 348.77775 414.28384 
L 355.19981 414.914235 
L 361.621869 415.460642 
L 368.043929 415.639486 
L 374.465988 415.512951 
L 380.888047 415.304897 
L 387.310107 415.150787 
L 393.732166 414.816758 
L 400.154225 414.438412 
L 406.576285 413.623113 
L 412.998344 412.773639 
L 419.420403 411.79618 
L 425.842463 410.915533 
L 432.264522 409.564002 
L 432.468561 409.514694 
L 438.686582 407.895164 
L 445.108641 405.596109 
L 451.419531 403.092635 
L 451.5307 403.054567 
L 457.95276 400.972085 
L 464.374819 398.530104 
L 468.06762 396.670575 
L 470.796878 395.020135 
L 477.218938 390.585772 
L 477.675012 390.248516 
L 483.640997 384.802041 
L 484.502269 383.826457 
L 489.901408 377.404397 
L 490.063057 377.208544 
L 495.778214 370.982338 
L 496.485116 369.640821 
L 499.52621 364.560278 
L 498.976844 358.138219 
L 496.485116 354.009446 
L 495.38631 351.71616 
L 491.228942 345.2941 
L 490.063057 344.15065 
L 484.763347 338.872041 
L 483.640997 337.941811 
L 477.218938 332.956885 
L 476.393718 332.449982 
L 470.796878 328.83488 
L 467.208074 326.027922 
L 464.374819 324.160605 
L 457.95276 321.024006 
L 454.461847 319.605863 
L 451.5307 318.303924 
L 445.108641 315.810459 
L 438.686582 314.233342 
L 436.081413 313.183804 
L 432.264522 311.495674 
L 425.842463 311.345272 
L 419.420403 310.406953 
L 412.998344 310.092226 
L 406.576285 309.608396 
L 400.154225 309.17604 
L 393.732166 309.231153 
L 387.310107 309.720095 
L 380.888047 310.20983 
L 374.465988 310.698729 
L 368.043929 311.2658 
L 361.621869 312.227813 
L 357.92392 313.183804 
L 355.19981 313.708797 
L 348.77775 314.781157 
L 342.355691 315.938233 
L 335.933632 317.385409 
L 329.511572 319.251277 
L 328.368825 319.605863 
L 323.089513 321.119117 
L 316.667454 323.054478 
L 310.245394 325.603013 
L 308.115304 326.027922 
L 303.823335 327.046891 
L 297.401276 331.177046 
L 295.202307 332.449982 
L 290.979216 334.956137 
L 285.073524 338.872041 
L 284.557157 339.236884 
L 278.135097 343.793108 
L 276.140317 345.2941 
L 271.713038 349.912073 
L 269.658179 351.71616 
L 265.290979 356.896651 
L 264.435897 358.138219 
L 261.273864 364.560278 
L 262.918335 370.982338 
L 265.290979 375.425828 
L 266.3185 377.404397 
L 270.696043 383.826457 
L 271.713038 385.065244 
L 277.212221 390.248516 
L 278.135097 390.806271 
L 284.557157 394.839112 
L 287.21507 396.670575 
L 290.979216 398.78631 
L 297.401276 401.352279 
L 302.044082 403.092635 
L 303.823335 403.822424 
L 310.245394 406.064019 
L 316.667454 408.362938 
L 321.420656 409.514694 
z
M 331.631314 403.092635 
L 329.511572 402.556783 
L 323.089513 400.698043 
L 316.667454 398.990159 
L 311.465752 396.670575 
L 310.245394 395.96709 
L 303.823335 392.707368 
L 299.986849 390.248516 
L 297.401276 388.049264 
L 292.545403 383.826457 
L 290.979216 382.302206 
L 286.134357 377.404397 
L 284.557157 375.051316 
L 281.916899 370.982338 
L 280.642492 364.560278 
L 282.914738 358.138219 
L 284.557157 355.96909 
L 287.603941 351.71616 
L 290.979216 348.519173 
L 294.79317 345.2941 
L 297.401276 343.512561 
L 303.823335 339.127744 
L 304.247138 338.872041 
L 310.245394 335.472836 
L 316.28916 332.449982 
L 316.667454 332.276959 
L 323.089513 329.632885 
L 329.511572 327.148235 
L 332.681037 326.027922 
L 335.933632 324.905611 
L 342.355691 323.250026 
L 348.77775 322.017402 
L 355.19981 320.957441 
L 361.621869 319.790598 
L 363.054312 319.605863 
L 368.043929 318.835017 
L 374.465988 317.994374 
L 380.888047 317.672589 
L 387.310107 317.493216 
L 393.732166 317.029125 
L 400.154225 317.149561 
L 406.576285 317.712025 
L 412.998344 318.551379 
L 419.420403 319.320003 
L 421.04916 319.605863 
L 425.842463 320.395837 
L 432.264522 321.784947 
L 438.686582 323.988957 
L 444.043107 326.027922 
L 445.108641 326.461616 
L 451.5307 329.352236 
L 457.632761 332.449982 
L 457.95276 332.625446 
L 464.374819 337.486133 
L 466.028568 338.872041 
L 470.796878 343.198682 
L 473.693218 345.2941 
L 477.218938 349.705363 
L 478.48715 351.71616 
L 480.852767 358.138219 
L 481.518034 364.560278 
L 479.022869 370.982338 
L 477.218938 373.250844 
L 473.197593 377.404397 
L 470.796878 379.476442 
L 465.114803 383.826457 
L 464.374819 384.420148 
L 457.95276 389.427987 
L 456.726145 390.248516 
L 451.5307 392.905769 
L 445.108641 396.217853 
L 444.103615 396.670575 
L 438.686582 398.831996 
L 432.264522 400.68765 
L 425.842463 402.289925 
L 421.330425 403.092635 
L 419.420403 403.477505 
L 412.998344 404.763251 
L 406.576285 406.021953 
L 400.154225 407.013601 
L 393.732166 407.79115 
L 387.310107 408.234189 
L 380.888047 408.327234 
L 374.465988 408.742872 
L 368.043929 408.770075 
L 361.621869 408.38645 
L 355.19981 407.696724 
L 348.77775 406.799174 
L 342.355691 405.780793 
L 335.933632 404.297378 
z
" style="fill:#7a0000;"/>
   </g>
   <g id="PathCollection_5">
    <path clip-path="url(#pd102cf842d)" d="M 335.933632 404.297378 
L 342.355691 405.780793 
L 348.77775 406.799174 
L 355.19981 407.696724 
L 361.621869 408.38645 
L 368.043929 408.770075 
L 374.465988 408.742872 
L 380.888047 408.327234 
L 387.310107 408.234189 
L 393.732166 407.79115 
L 400.154225 407.013601 
L 406.576285 406.021953 
L 412.998344 404.763251 
L 419.420403 403.477505 
L 421.330425 403.092635 
L 425.842463 402.289925 
L 432.264522 400.68765 
L 438.686582 398.831996 
L 444.103615 396.670575 
L 445.108641 396.217853 
L 451.5307 392.905769 
L 456.726145 390.248516 
L 457.95276 389.427987 
L 464.374819 384.420148 
L 465.114803 383.826457 
L 470.796878 379.476442 
L 473.197593 377.404397 
L 477.218938 373.250844 
L 479.022869 370.982338 
L 481.518034 364.560278 
L 480.852767 358.138219 
L 478.48715 351.71616 
L 477.218938 349.705363 
L 473.693218 345.2941 
L 470.796878 343.198682 
L 466.028568 338.872041 
L 464.374819 337.486133 
L 457.95276 332.625446 
L 457.632761 332.449982 
L 451.5307 329.352236 
L 445.108641 326.461616 
L 444.043107 326.027922 
L 438.686582 323.988957 
L 432.264522 321.784947 
L 425.842463 320.395837 
L 421.04916 319.605863 
L 419.420403 319.320003 
L 412.998344 318.551379 
L 406.576285 317.712025 
L 400.154225 317.149561 
L 393.732166 317.029125 
L 387.310107 317.493216 
L 380.888047 317.672589 
L 374.465988 317.994374 
L 368.043929 318.835017 
L 363.054312 319.605863 
L 361.621869 319.790598 
L 355.19981 320.957441 
L 348.77775 322.017402 
L 342.355691 323.250026 
L 335.933632 324.905611 
L 332.681037 326.027922 
L 329.511572 327.148235 
L 323.089513 329.632885 
L 316.667454 332.276959 
L 316.28916 332.449982 
L 310.245394 335.472836 
L 304.247138 338.872041 
L 303.823335 339.127744 
L 297.401276 343.512561 
L 294.79317 345.2941 
L 290.979216 348.519173 
L 287.603941 351.71616 
L 284.557157 355.96909 
L 282.914738 358.138219 
L 280.642492 364.560278 
L 281.916899 370.982338 
L 284.557157 375.051316 
L 286.134357 377.404397 
L 290.979216 382.302206 
L 292.545403 383.826457 
L 297.401276 388.049264 
L 299.986849 390.248516 
L 303.823335 392.707368 
L 310.245394 395.96709 
L 311.465752 396.670575 
L 316.667454 398.990159 
L 323.089513 400.698043 
L 329.511572 402.556783 
L 331.631314 403.092635 
z
M 335.057043 396.670575 
L 329.511572 394.931865 
L 323.089513 392.886806 
L 317.099096 390.248516 
L 316.667454 389.981677 
L 310.245394 384.450011 
L 309.345068 383.826457 
L 303.823335 379.799363 
L 301.201442 377.404397 
L 297.401276 373.403537 
L 295.425476 370.982338 
L 293.406082 364.560278 
L 295.681634 358.138219 
L 297.401276 356.056633 
L 301.437783 351.71616 
L 303.823335 349.804559 
L 310.245394 345.294118 
L 310.245415 345.2941 
L 316.667454 340.714534 
L 319.951975 338.872041 
L 323.089513 337.305512 
L 329.511572 334.31033 
L 334.887466 332.449982 
L 335.933632 332.063928 
L 342.355691 329.808401 
L 348.77775 328.290824 
L 355.19981 327.046094 
L 359.836783 326.027922 
L 361.621869 325.636255 
L 368.043929 324.643473 
L 374.465988 323.68223 
L 380.888047 323.58755 
L 387.310107 323.438056 
L 393.732166 323.086192 
L 400.154225 323.26801 
L 406.576285 324.038176 
L 412.998344 324.925285 
L 419.368429 326.027922 
L 419.420403 326.037364 
L 425.842463 328.017563 
L 432.264522 330.10743 
L 438.576577 332.449982 
L 438.686582 332.491089 
L 445.108641 335.595209 
L 450.80457 338.872041 
L 451.5307 339.407795 
L 457.95276 344.563689 
L 458.759105 345.2941 
L 463.444549 351.71616 
L 464.374819 353.39372 
L 467.001238 358.138219 
L 468.46037 364.560278 
L 465.309756 370.982338 
L 464.374819 371.875933 
L 457.95276 377.307562 
L 457.839358 377.404397 
L 451.5307 382.063912 
L 448.939575 383.826457 
L 445.108641 386.638375 
L 439.164752 390.248516 
L 438.686582 390.48467 
L 432.264522 392.716182 
L 425.842463 394.961871 
L 419.543856 396.670575 
L 419.420403 396.701151 
L 412.998344 398.05901 
L 406.576285 399.525913 
L 400.154225 400.468062 
L 393.732166 401.264968 
L 387.310107 401.857568 
L 380.888047 402.097453 
L 374.465988 402.549001 
L 368.043929 402.481273 
L 361.621869 402.005797 
L 355.19981 401.161326 
L 348.77775 400.008828 
L 342.355691 398.580129 
L 335.933632 396.93542 
z
" style="fill:#9c0000;"/>
   </g>
   <g id="PathCollection_6">
    <path clip-path="url(#pd102cf842d)" d="M 335.933632 396.93542 
L 342.355691 398.580129 
L 348.77775 400.008828 
L 355.19981 401.161326 
L 361.621869 402.005797 
L 368.043929 402.481273 
L 374.465988 402.549001 
L 380.888047 402.097453 
L 387.310107 401.857568 
L 393.732166 401.264968 
L 400.154225 400.468062 
L 406.576285 399.525913 
L 412.998344 398.05901 
L 419.420403 396.701151 
L 419.543856 396.670575 
L 425.842463 394.961871 
L 432.264522 392.716182 
L 438.686582 390.48467 
L 439.164752 390.248516 
L 445.108641 386.638375 
L 448.939575 383.826457 
L 451.5307 382.063912 
L 457.839358 377.404397 
L 457.95276 377.307562 
L 464.374819 371.875933 
L 465.309756 370.982338 
L 468.46037 364.560278 
L 467.001238 358.138219 
L 464.374819 353.39372 
L 463.444549 351.71616 
L 458.759105 345.2941 
L 457.95276 344.563689 
L 451.5307 339.407795 
L 450.80457 338.872041 
L 445.108641 335.595209 
L 438.686582 332.491089 
L 438.576577 332.449982 
L 432.264522 330.10743 
L 425.842463 328.017563 
L 419.420403 326.037364 
L 419.368429 326.027922 
L 412.998344 324.925285 
L 406.576285 324.038176 
L 400.154225 323.26801 
L 393.732166 323.086192 
L 387.310107 323.438056 
L 380.888047 323.58755 
L 374.465988 323.68223 
L 368.043929 324.643473 
L 361.621869 325.636255 
L 359.836783 326.027922 
L 355.19981 327.046094 
L 348.77775 328.290824 
L 342.355691 329.808401 
L 335.933632 332.063928 
L 334.887466 332.449982 
L 329.511572 334.31033 
L 323.089513 337.305512 
L 319.951975 338.872041 
L 316.667454 340.714534 
L 310.245415 345.2941 
L 310.245394 345.294118 
L 303.823335 349.804559 
L 301.437783 351.71616 
L 297.401276 356.056633 
L 295.681634 358.138219 
L 293.406082 364.560278 
L 295.425476 370.982338 
L 297.401276 373.403537 
L 301.201442 377.404397 
L 303.823335 379.799363 
L 309.345068 383.826457 
L 310.245394 384.450011 
L 316.667454 389.981677 
L 317.099096 390.248516 
L 323.089513 392.886806 
L 329.511572 394.931865 
L 335.057043 396.670575 
z
M 364.768462 396.670575 
L 361.621869 396.394538 
L 355.19981 395.250962 
L 348.77775 393.742402 
L 342.355691 391.892395 
L 337.216638 390.248516 
L 335.933632 389.760718 
L 329.511572 387.150689 
L 323.138264 383.826457 
L 323.089513 383.796291 
L 316.667454 379.310646 
L 314.533854 377.404397 
L 310.245394 373.037412 
L 308.102223 370.982338 
L 305.462595 364.560278 
L 308.073701 358.138219 
L 310.245394 356.011509 
L 314.019569 351.71616 
L 316.667454 349.389754 
L 321.922401 345.2941 
L 323.089513 344.575373 
L 329.511572 341.051779 
L 335.451684 338.872041 
L 335.933632 338.700284 
L 342.355691 336.204594 
L 348.77775 334.272054 
L 355.19981 332.870203 
L 357.306164 332.449982 
L 361.621869 331.528651 
L 368.043929 330.061562 
L 374.465988 328.957516 
L 380.888047 329.043666 
L 387.310107 328.916869 
L 393.732166 328.645714 
L 400.154225 328.937099 
L 406.576285 330.052488 
L 412.998344 331.062972 
L 419.082165 332.449982 
L 419.420403 332.535883 
L 425.842463 335.253192 
L 432.264522 337.746693 
L 435.050744 338.872041 
L 438.686582 340.468075 
L 445.108641 344.525892 
L 446.097264 345.2941 
L 451.058104 351.71616 
L 451.5307 352.559769 
L 454.76201 358.138219 
L 456.336169 364.560278 
L 452.972729 370.982338 
L 451.5307 372.234121 
L 445.108641 376.990755 
L 444.575706 377.404397 
L 438.686582 381.52789 
L 433.240994 383.826457 
L 432.264522 384.253273 
L 425.842463 387.386331 
L 419.420403 390.117014 
L 419.030742 390.248516 
L 412.998344 391.919317 
L 406.576285 393.570971 
L 400.154225 394.651578 
L 393.732166 395.389126 
L 387.310107 396.272824 
L 381.163238 396.670575 
L 380.888047 396.688892 
L 374.465988 397.055017 
L 368.043929 396.951965 
z
" style="fill:#c00100;"/>
   </g>
   <g id="PathCollection_7">
    <path clip-path="url(#pd102cf842d)" d="M 368.043929 396.951965 
L 374.465988 397.055017 
L 380.888047 396.688892 
L 381.163238 396.670575 
L 387.310107 396.272824 
L 393.732166 395.389126 
L 400.154225 394.651578 
L 406.576285 393.570971 
L 412.998344 391.919317 
L 419.030742 390.248516 
L 419.420403 390.117014 
L 425.842463 387.386331 
L 432.264522 384.253273 
L 433.240994 383.826457 
L 438.686582 381.52789 
L 444.575706 377.404397 
L 445.108641 376.990755 
L 451.5307 372.234121 
L 452.972729 370.982338 
L 456.336169 364.560278 
L 454.76201 358.138219 
L 451.5307 352.559769 
L 451.058104 351.71616 
L 446.097264 345.2941 
L 445.108641 344.525892 
L 438.686582 340.468075 
L 435.050744 338.872041 
L 432.264522 337.746693 
L 425.842463 335.253192 
L 419.420403 332.535883 
L 419.082165 332.449982 
L 412.998344 331.062972 
L 406.576285 330.052488 
L 400.154225 328.937099 
L 393.732166 328.645714 
L 387.310107 328.916869 
L 380.888047 329.043666 
L 374.465988 328.957516 
L 368.043929 330.061562 
L 361.621869 331.528651 
L 357.306164 332.449982 
L 355.19981 332.870203 
L 348.77775 334.272054 
L 342.355691 336.204594 
L 335.933632 338.700284 
L 335.451684 338.872041 
L 329.511572 341.051779 
L 323.089513 344.575373 
L 321.922401 345.2941 
L 316.667454 349.389754 
L 314.019569 351.71616 
L 310.245394 356.011509 
L 308.073701 358.138219 
L 305.462595 364.560278 
L 308.102223 370.982338 
L 310.245394 373.037412 
L 314.533854 377.404397 
L 316.667454 379.310646 
L 323.089513 383.796291 
L 323.138264 383.826457 
L 329.511572 387.150689 
L 335.933632 389.760718 
L 337.216638 390.248516 
L 342.355691 391.892395 
L 348.77775 393.742402 
L 355.19981 395.250962 
L 361.621869 396.394538 
L 364.768462 396.670575 
z
M 359.148907 390.248516 
L 355.19981 389.340527 
L 348.77775 387.386405 
L 342.355691 384.820748 
L 340.065728 383.826457 
L 335.933632 381.970498 
L 329.511572 378.6633 
L 327.632845 377.404397 
L 323.089513 373.91319 
L 319.367721 370.982338 
L 316.667454 365.422568 
L 316.314085 364.560278 
L 316.667454 363.660628 
L 318.836569 358.138219 
L 323.089513 353.532561 
L 324.863414 351.71616 
L 329.511572 348.340321 
L 335.110704 345.2941 
L 335.933632 344.948975 
L 342.355691 342.385854 
L 348.77775 340.04658 
L 353.205772 338.872041 
L 355.19981 338.379831 
L 361.621869 337.367281 
L 368.043929 335.385902 
L 374.465988 334.150371 
L 380.888047 334.270532 
L 387.310107 334.228251 
L 393.732166 334.110503 
L 400.154225 334.613732 
L 406.576285 336.061096 
L 412.998344 337.399359 
L 417.896151 338.872041 
L 419.420403 339.369191 
L 425.842463 342.088476 
L 432.096035 345.2941 
L 432.264522 345.414603 
L 438.686582 349.751628 
L 440.546277 351.71616 
L 444.055723 358.138219 
L 445.108641 363.430998 
L 445.365112 364.560278 
L 445.108641 364.962011 
L 441.406856 370.982338 
L 438.686582 373.142337 
L 432.264522 376.689939 
L 430.917669 377.404397 
L 425.842463 379.88729 
L 419.420403 382.775028 
L 417.128455 383.826457 
L 412.998344 385.569439 
L 406.576285 387.375351 
L 400.154225 388.741497 
L 393.732166 389.7344 
L 391.268467 390.248516 
L 387.310107 391.01491 
L 380.888047 391.433137 
L 374.465988 391.415553 
L 368.043929 391.252338 
L 361.621869 390.74825 
z
" style="fill:#e22f00;"/>
   </g>
   <g id="PathCollection_8">
    <path clip-path="url(#pd102cf842d)" d="M 361.621869 390.74825 
L 368.043929 391.252338 
L 374.465988 391.415553 
L 380.888047 391.433137 
L 387.310107 391.01491 
L 391.268467 390.248516 
L 393.732166 389.7344 
L 400.154225 388.741497 
L 406.576285 387.375351 
L 412.998344 385.569439 
L 417.128455 383.826457 
L 419.420403 382.775028 
L 425.842463 379.88729 
L 430.917669 377.404397 
L 432.264522 376.689939 
L 438.686582 373.142337 
L 441.406856 370.982338 
L 445.108641 364.962011 
L 445.365112 364.560278 
L 445.108641 363.430998 
L 444.055723 358.138219 
L 440.546277 351.71616 
L 438.686582 349.751628 
L 432.264522 345.414603 
L 432.096035 345.2941 
L 425.842463 342.088476 
L 419.420403 339.369191 
L 417.896151 338.872041 
L 412.998344 337.399359 
L 406.576285 336.061096 
L 400.154225 334.613732 
L 393.732166 334.110503 
L 387.310107 334.228251 
L 380.888047 334.270532 
L 374.465988 334.150371 
L 368.043929 335.385902 
L 361.621869 337.367281 
L 355.19981 338.379831 
L 353.205772 338.872041 
L 348.77775 340.04658 
L 342.355691 342.385854 
L 335.933632 344.948975 
L 335.110704 345.2941 
L 329.511572 348.340321 
L 324.863414 351.71616 
L 323.089513 353.532561 
L 318.836569 358.138219 
L 316.667454 363.660628 
L 316.314085 364.560278 
L 316.667454 365.422568 
L 319.367721 370.982338 
L 323.089513 373.91319 
L 327.632845 377.404397 
L 329.511572 378.6633 
L 335.933632 381.970498 
L 340.065728 383.826457 
L 342.355691 384.820748 
L 348.77775 387.386405 
L 355.19981 389.340527 
L 359.148907 390.248516 
z
M 358.96164 383.826457 
L 355.19981 382.89181 
L 348.77775 380.794423 
L 342.355691 377.763279 
L 341.609094 377.404397 
L 335.933632 374.435478 
L 330.916408 370.982338 
L 329.511572 368.891979 
L 326.837666 364.560278 
L 329.18306 358.138219 
L 329.511572 357.802505 
L 335.933632 352.27241 
L 336.766302 351.71616 
L 342.355691 348.998971 
L 348.77775 346.128853 
L 350.799184 345.2941 
L 355.19981 343.921811 
L 361.621869 342.853544 
L 368.043929 340.720144 
L 374.465988 339.434926 
L 380.888047 339.357068 
L 387.310107 339.412029 
L 393.732166 339.572742 
L 400.154225 340.442078 
L 406.576285 342.280699 
L 412.998344 344.062 
L 416.565688 345.2941 
L 419.420403 346.513486 
L 425.842463 349.79858 
L 428.422234 351.71616 
L 432.264522 356.693963 
L 433.411658 358.138219 
L 434.515105 364.560278 
L 432.264522 367.254062 
L 428.986448 370.982338 
L 425.842463 372.755775 
L 419.420403 375.718768 
L 416.333546 377.404397 
L 412.998344 379.059687 
L 406.576285 380.892372 
L 400.154225 382.388088 
L 394.744854 383.826457 
L 393.732166 384.06744 
L 387.310107 385.645998 
L 380.888047 385.858183 
L 374.465988 385.445152 
L 368.043929 384.867902 
L 361.621869 384.462468 
z
" style="fill:#ff5d00;"/>
   </g>
   <g id="PathCollection_9">
    <path clip-path="url(#pd102cf842d)" d="M 361.621869 384.462468 
L 368.043929 384.867902 
L 374.465988 385.445152 
L 380.888047 385.858183 
L 387.310107 385.645998 
L 393.732166 384.06744 
L 394.744854 383.826457 
L 400.154225 382.388088 
L 406.576285 380.892372 
L 412.998344 379.059687 
L 416.333546 377.404397 
L 419.420403 375.718768 
L 425.842463 372.755775 
L 428.986448 370.982338 
L 432.264522 367.254062 
L 434.515105 364.560278 
L 433.411658 358.138219 
L 432.264522 356.693963 
L 428.422234 351.71616 
L 425.842463 349.79858 
L 419.420403 346.513486 
L 416.565688 345.2941 
L 412.998344 344.062 
L 406.576285 342.280699 
L 400.154225 340.442078 
L 393.732166 339.572742 
L 387.310107 339.412029 
L 380.888047 339.357068 
L 374.465988 339.434926 
L 368.043929 340.720144 
L 361.621869 342.853544 
L 355.19981 343.921811 
L 350.799184 345.2941 
L 348.77775 346.128853 
L 342.355691 348.998971 
L 336.766302 351.71616 
L 335.933632 352.27241 
L 329.511572 357.802505 
L 329.18306 358.138219 
L 326.837666 364.560278 
L 329.511572 368.891979 
L 330.916408 370.982338 
L 335.933632 374.435478 
L 341.609094 377.404397 
L 342.355691 377.763279 
L 348.77775 380.794423 
L 355.19981 382.89181 
L 358.96164 383.826457 
z
M 359.442815 377.404397 
L 355.19981 376.307207 
L 348.77775 373.832712 
L 343.388344 370.982338 
L 342.355691 369.787167 
L 337.92837 364.560278 
L 341.654714 358.138219 
L 342.355691 357.667407 
L 348.77775 353.934473 
L 352.05175 351.71616 
L 355.19981 350.213253 
L 361.621869 348.413944 
L 368.043929 346.178479 
L 373.59226 345.2941 
L 374.465988 345.159519 
L 380.888047 344.769411 
L 387.310107 344.869211 
L 393.732166 345.268896 
L 393.87209 345.2941 
L 400.154225 346.785784 
L 406.576285 349.550981 
L 412.422571 351.71616 
L 412.998344 352.02898 
L 419.420403 357.014781 
L 420.595174 358.138219 
L 421.613193 364.560278 
L 419.420403 366.508495 
L 415.093364 370.982338 
L 412.998344 372.144755 
L 406.576285 374.414635 
L 400.154225 376.073486 
L 396.441763 377.404397 
L 393.732166 378.301367 
L 387.310107 380.028103 
L 380.888047 379.982581 
L 374.465988 379.57358 
L 368.043929 378.451521 
L 361.621869 377.966808 
z
" style="fill:#ff8b17;"/>
   </g>
   <g id="PathCollection_10">
    <path clip-path="url(#pd102cf842d)" d="M 361.621869 377.966808 
L 368.043929 378.451521 
L 374.465988 379.57358 
L 380.888047 379.982581 
L 387.310107 380.028103 
L 393.732166 378.301367 
L 396.441763 377.404397 
L 400.154225 376.073486 
L 406.576285 374.414635 
L 412.998344 372.144755 
L 415.093364 370.982338 
L 419.420403 366.508495 
L 421.613193 364.560278 
L 420.595174 358.138219 
L 419.420403 357.014781 
L 412.998344 352.02898 
L 412.422571 351.71616 
L 406.576285 349.550981 
L 400.154225 346.785784 
L 393.87209 345.2941 
L 393.732166 345.268896 
L 387.310107 344.869211 
L 380.888047 344.769411 
L 374.465988 345.159519 
L 373.59226 345.2941 
L 368.043929 346.178479 
L 361.621869 348.413944 
L 355.19981 350.213253 
L 352.05175 351.71616 
L 348.77775 353.934473 
L 342.355691 357.667407 
L 341.654714 358.138219 
L 337.92837 364.560278 
L 342.355691 369.787167 
L 343.388344 370.982338 
L 348.77775 373.832712 
L 355.19981 376.307207 
L 359.442815 377.404397 
z
M 359.52511 370.982338 
L 355.19981 368.766653 
L 351.280268 364.560278 
L 354.815803 358.138219 
L 355.19981 357.860705 
L 361.621869 354.926142 
L 368.043929 352.251334 
L 374.274412 351.71616 
L 374.465988 351.703001 
L 380.888047 351.454826 
L 383.752615 351.71616 
L 387.310107 352.217113 
L 393.732166 353.163668 
L 400.154225 355.318551 
L 404.235068 358.138219 
L 406.576285 362.974835 
L 407.407758 364.560278 
L 406.576285 365.180505 
L 400.154225 369.02697 
L 396.670893 370.982338 
L 393.732166 371.985464 
L 387.310107 373.769722 
L 380.888047 373.722325 
L 374.465988 373.711701 
L 368.043929 372.391915 
L 361.621869 371.553156 
z
" style="fill:#ffbb77;"/>
   </g>
   <g id="PathCollection_11">
    <path clip-path="url(#pd102cf842d)" d="M 361.621869 371.553156 
L 368.043929 372.391915 
L 374.465988 373.711701 
L 380.888047 373.722325 
L 387.310107 373.769722 
L 393.732166 371.985464 
L 396.670893 370.982338 
L 400.154225 369.02697 
L 406.576285 365.180505 
L 407.407758 364.560278 
L 406.576285 362.974835 
L 404.235068 358.138219 
L 400.154225 355.318551 
L 393.732166 353.163668 
L 387.310107 352.217113 
L 383.752615 351.71616 
L 380.888047 351.454826 
L 374.465988 351.703001 
L 374.274412 351.71616 
L 368.043929 352.251334 
L 361.621869 354.926142 
L 355.19981 357.860705 
L 354.815803 358.138219 
L 351.280268 364.560278 
L 355.19981 368.766653 
L 359.52511 370.982338 
z
" style="fill:#ffe9d3;"/>
   </g>
   <g id="patch_8">
    <path d="M 181.804207 171.898497 
L 560.70571 171.898497 
" style="fill:none;stroke:#262626;stroke-linecap:square;stroke-linejoin:miter;stroke-width:1.25;"/>
   </g>
   <g id="patch_9">
    <path d="M 181.804207 550.8 
L 181.804207 171.898497 
" style="fill:none;stroke:#262626;stroke-linecap:square;stroke-linejoin:miter;stroke-width:1.25;"/>
   </g>
   <g id="patch_10">
    <path d="M 181.804207 550.8 
L 560.70571 550.8 
" style="fill:none;stroke:#262626;stroke-linecap:square;stroke-linejoin:miter;stroke-width:1.25;"/>
   </g>
   <g id="patch_11">
    <path d="M 560.70571 550.8 
L 560.70571 171.898497 
" style="fill:none;stroke:#262626;stroke-linecap:square;stroke-linejoin:miter;stroke-width:1.25;"/>
   </g>
  </g>
  <g id="axes_3">
   <g id="patch_12">
    <path d="M 683.483139 550.8 
L 765.411686 550.8 
L 765.411686 171.898497 
L 683.483139 171.898497 
z
" style="fill:#ffffff;"/>
   </g>
   <g id="matplotlib.axis_5">
    <g id="xtick_11">
     <g id="line2d_42">
      <g>
       <use style="fill:#262626;stroke:#262626;stroke-width:1.5;" x="683.483138564" xlink:href="#m07346bcb2f" y="550.8"/>
      </g>
     </g>
     <g id="line2d_43">
      <g>
       <use style="fill:#262626;stroke:#262626;stroke-width:1.5;" x="683.483138564" xlink:href="#mbd1ebe22b3" y="171.898497496"/>
      </g>
     </g>
     <g id="text_21">
      <!-- 0 -->
      <g style="fill:#262626;" transform="translate(677.120638564 578.996875)scale(0.2 -0.2)">
       <use xlink:href="#DejaVuSerif-30"/>
      </g>
     </g>
    </g>
    <g id="xtick_12">
     <g id="line2d_44">
      <g>
       <use style="fill:#262626;stroke:#262626;stroke-width:1.5;" x="765.411686144" xlink:href="#m07346bcb2f" y="550.8"/>
      </g>
     </g>
     <g id="line2d_45">
      <g>
       <use style="fill:#262626;stroke:#262626;stroke-width:1.5;" x="765.411686144" xlink:href="#mbd1ebe22b3" y="171.898497496"/>
      </g>
     </g>
     <g id="text_22">
      <!-- 1 -->
      <g style="fill:#262626;" transform="translate(759.049186144 578.996875)scale(0.2 -0.2)">
       <use xlink:href="#DejaVuSerif-31"/>
      </g>
     </g>
    </g>
   </g>
   <g id="matplotlib.axis_6">
    <g id="ytick_11">
     <g id="line2d_46">
      <g>
       <use style="fill:#262626;stroke:#262626;stroke-width:1.5;" x="683.483138564" xlink:href="#m9e918c5a05" y="550.8"/>
      </g>
     </g>
     <g id="line2d_47">
      <g>
       <use style="fill:#262626;stroke:#262626;stroke-width:1.5;" x="765.411686144" xlink:href="#m41a6a453ce" y="550.8"/>
      </g>
     </g>
    </g>
    <g id="ytick_12">
     <g id="line2d_48">
      <g>
       <use style="fill:#262626;stroke:#262626;stroke-width:1.5;" x="683.483138564" xlink:href="#m9e918c5a05" y="171.898497496"/>
      </g>
     </g>
     <g id="line2d_49">
      <g>
       <use style="fill:#262626;stroke:#262626;stroke-width:1.5;" x="765.411686144" xlink:href="#m41a6a453ce" y="171.898497496"/>
      </g>
     </g>
    </g>
   </g>
   <g id="line2d_50">
    <path clip-path="url(#p1644e4308f)" d="M 683.671195 550.8 
L 683.574322 544.484975 
L 683.353384 538.16995 
L 684.070584 531.854925 
L 684.174256 525.5399 
L 684.340809 519.224875 
L 685.703831 512.90985 
L 686.56889 506.594825 
L 687.456044 500.2798 
L 688.020287 493.964775 
L 688.948229 487.64975 
L 689.814988 481.334725 
L 689.614444 475.019699 
L 689.225252 468.704674 
L 688.606624 462.389649 
L 687.770456 456.074624 
L 687.367668 449.759599 
L 687.539321 443.444574 
L 687.998193 437.129549 
L 689.823486 430.814524 
L 693.492767 424.499499 
L 699.517593 418.184474 
L 707.105985 411.869449 
L 715.348695 405.554424 
L 724.864351 399.239399 
L 734.08089 392.924374 
L 742.140051 386.609349 
L 750.367466 380.294324 
L 759.145527 373.979299 
L 764.500739 367.664274 
L 763.09523 361.349249 
L 756.684611 355.034224 
L 747.802878 348.719199 
L 738.016997 342.404174 
L 728.112149 336.089149 
L 718.258286 329.774124 
L 708.963569 323.459098 
L 701.449956 317.144073 
L 696.155927 310.829048 
L 692.335388 304.514023 
L 689.254144 298.198998 
L 687.439049 291.883973 
L 686.674261 285.568948 
L 686.514505 279.253923 
L 686.596083 272.938898 
L 686.324158 266.623873 
L 686.393839 260.308848 
L 686.001248 253.993823 
L 685.472695 247.678798 
L 684.947541 241.363773 
L 684.167457 235.048748 
L 684.034894 228.733723 
L 683.448557 222.418698 
L 683.195328 216.103673 
L 683.278604 209.788648 
L 683.117149 203.473623 
L 683.202126 197.158598 
L 682.688868 190.843573 
L 682.598793 184.528548 
L 682.867319 178.213523 
" style="fill:none;stroke:#ff0000;stroke-linecap:round;stroke-width:2.0;"/>
   </g>
   <g id="patch_13">
    <path d="M 683.483139 171.898497 
L 765.411686 171.898497 
" style="fill:none;stroke:#262626;stroke-linecap:square;stroke-linejoin:miter;stroke-width:1.25;"/>
   </g>
   <g id="patch_14">
    <path d="M 683.483139 550.8 
L 683.483139 171.898497 
" style="fill:none;stroke:#262626;stroke-linecap:square;stroke-linejoin:miter;stroke-width:1.25;"/>
   </g>
   <g id="patch_15">
    <path d="M 683.483139 550.8 
L 765.411686 550.8 
" style="fill:none;stroke:#262626;stroke-linecap:square;stroke-linejoin:miter;stroke-width:1.25;"/>
   </g>
   <g id="patch_16">
    <path d="M 765.411686 550.8 
L 765.411686 171.898497 
" style="fill:none;stroke:#262626;stroke-linecap:square;stroke-linejoin:miter;stroke-width:1.25;"/>
   </g>
  </g>
  <g id="axes_4">
   <g id="patch_17">
    <path clip-path="url(#p124aae564c)" d="M 587.649816 550.8 
L 587.649816 516.354409 
L 587.649816 206.344089 
L 587.649816 171.898497 
L 606.594891 171.898497 
L 606.594891 206.344089 
L 606.594891 516.354409 
L 606.594891 550.8 
z
" style="fill:#ffffff;stroke:#ffffff;stroke-linejoin:miter;stroke-width:0.01;"/>
   </g>
   <g id="matplotlib.axis_7"/>
   <g id="matplotlib.axis_8">
    <g id="ytick_13">
     <g id="line2d_51">
      <g>
       <use style="fill:#262626;stroke:#262626;" x="606.594891486" xlink:href="#m8ecf527aae" y="516.354408863"/>
      </g>
     </g>
     <g id="text_23">
      <!-- 0.0 -->
      <defs>
       <path d="M 9.421875 5.078125 
Q 9.421875 7.8125 11.28125 9.71875 
Q 13.140625 11.625 15.921875 11.625 
Q 18.609375 11.625 20.5 9.71875 
Q 22.40625 7.8125 22.40625 5.078125 
Q 22.40625 2.390625 20.5 0.484375 
Q 18.609375 -1.421875 15.921875 -1.421875 
Q 13.140625 -1.421875 11.28125 0.453125 
Q 9.421875 2.34375 9.421875 5.078125 
" id="DejaVuSerif-2e"/>
      </defs>
      <g style="fill:#262626;" transform="translate(619.594891486 521.873158863)scale(0.2 -0.2)">
       <use xlink:href="#DejaVuSerif-30"/>
       <use x="63.623046875" xlink:href="#DejaVuSerif-2e"/>
       <use x="95.41015625" xlink:href="#DejaVuSerif-30"/>
      </g>
     </g>
    </g>
    <g id="ytick_14">
     <g id="line2d_52">
      <g>
       <use style="fill:#262626;stroke:#262626;" x="606.594891486" xlink:href="#m8ecf527aae" y="447.46322659"/>
      </g>
     </g>
     <g id="text_24">
      <!-- 0.2 -->
      <g style="fill:#262626;" transform="translate(619.594891486 452.98197659)scale(0.2 -0.2)">
       <use xlink:href="#DejaVuSerif-30"/>
       <use x="63.623046875" xlink:href="#DejaVuSerif-2e"/>
       <use x="95.41015625" xlink:href="#DejaVuSerif-32"/>
      </g>
     </g>
    </g>
    <g id="ytick_15">
     <g id="line2d_53">
      <g>
       <use style="fill:#262626;stroke:#262626;" x="606.594891486" xlink:href="#m8ecf527aae" y="378.572044316"/>
      </g>
     </g>
     <g id="text_25">
      <!-- 0.4 -->
      <defs>
       <path d="M 34.90625 24.703125 
L 34.90625 63.484375 
L 10.015625 24.703125 
z
M 56.390625 0 
L 23.1875 0 
L 23.1875 5.171875 
L 34.90625 5.171875 
L 34.90625 19.484375 
L 3.078125 19.484375 
L 3.078125 24.8125 
L 35.015625 74.21875 
L 44.671875 74.21875 
L 44.671875 24.703125 
L 58.59375 24.703125 
L 58.59375 19.484375 
L 44.671875 19.484375 
L 44.671875 5.171875 
L 56.390625 5.171875 
z
" id="DejaVuSerif-34"/>
      </defs>
      <g style="fill:#262626;" transform="translate(619.594891486 384.090794316)scale(0.2 -0.2)">
       <use xlink:href="#DejaVuSerif-30"/>
       <use x="63.623046875" xlink:href="#DejaVuSerif-2e"/>
       <use x="95.41015625" xlink:href="#DejaVuSerif-34"/>
      </g>
     </g>
    </g>
    <g id="ytick_16">
     <g id="line2d_54">
      <g>
       <use style="fill:#262626;stroke:#262626;" x="606.594891486" xlink:href="#m8ecf527aae" y="309.680862043"/>
      </g>
     </g>
     <g id="text_26">
      <!-- 0.6 -->
      <defs>
       <path d="M 32.71875 3.421875 
Q 39.59375 3.421875 43.296875 8.46875 
Q 47.015625 13.53125 47.015625 23 
Q 47.015625 32.46875 43.296875 37.515625 
Q 39.59375 42.578125 32.71875 42.578125 
Q 25.734375 42.578125 22.0625 37.6875 
Q 18.40625 32.8125 18.40625 23.578125 
Q 18.40625 13.875 22.109375 8.640625 
Q 25.828125 3.421875 32.71875 3.421875 
M 16.796875 40.140625 
Q 20.125 43.796875 24.3125 45.59375 
Q 28.515625 47.40625 33.796875 47.40625 
Q 44.671875 47.40625 51 40.859375 
Q 57.328125 34.328125 57.328125 23 
Q 57.328125 11.921875 50.515625 5.25 
Q 43.703125 -1.421875 32.328125 -1.421875 
Q 19.96875 -1.421875 13.328125 7.78125 
Q 6.6875 17 6.6875 34.078125 
Q 6.6875 53.21875 14.546875 63.71875 
Q 22.40625 74.21875 36.71875 74.21875 
Q 40.578125 74.21875 44.828125 73.484375 
Q 49.078125 72.75 53.515625 71.296875 
L 53.515625 59.28125 
L 48 59.28125 
Q 47.40625 64.203125 44.234375 66.796875 
Q 41.0625 69.390625 35.6875 69.390625 
Q 26.21875 69.390625 21.578125 62.203125 
Q 16.9375 55.03125 16.796875 40.140625 
" id="DejaVuSerif-36"/>
      </defs>
      <g style="fill:#262626;" transform="translate(619.594891486 315.199612043)scale(0.2 -0.2)">
       <use xlink:href="#DejaVuSerif-30"/>
       <use x="63.623046875" xlink:href="#DejaVuSerif-2e"/>
       <use x="95.41015625" xlink:href="#DejaVuSerif-36"/>
      </g>
     </g>
    </g>
    <g id="ytick_17">
     <g id="line2d_55">
      <g>
       <use style="fill:#262626;stroke:#262626;" x="606.594891486" xlink:href="#m8ecf527aae" y="240.789679769"/>
      </g>
     </g>
     <g id="text_27">
      <!-- 0.8 -->
      <defs>
       <path d="M 46.578125 19.921875 
Q 46.578125 27.734375 42.6875 32.046875 
Q 38.8125 36.375 31.78125 36.375 
Q 24.75 36.375 20.875 32.046875 
Q 17 27.734375 17 19.921875 
Q 17 12.0625 20.875 7.734375 
Q 24.75 3.421875 31.78125 3.421875 
Q 38.8125 3.421875 42.6875 7.734375 
Q 46.578125 12.0625 46.578125 19.921875 
M 44.578125 55.328125 
Q 44.578125 61.96875 41.203125 65.671875 
Q 37.84375 69.390625 31.78125 69.390625 
Q 25.78125 69.390625 22.390625 65.671875 
Q 19 61.96875 19 55.328125 
Q 19 48.640625 22.390625 44.921875 
Q 25.78125 41.21875 31.78125 41.21875 
Q 37.84375 41.21875 41.203125 44.921875 
Q 44.578125 48.640625 44.578125 55.328125 
M 39.3125 38.8125 
Q 47.609375 37.703125 52.25 32.6875 
Q 56.890625 27.6875 56.890625 19.921875 
Q 56.890625 9.671875 50.390625 4.125 
Q 43.890625 -1.421875 31.78125 -1.421875 
Q 19.734375 -1.421875 13.203125 4.125 
Q 6.6875 9.671875 6.6875 19.921875 
Q 6.6875 27.6875 11.328125 32.6875 
Q 15.96875 37.703125 24.3125 38.8125 
Q 16.9375 40.140625 13 44.40625 
Q 9.078125 48.6875 9.078125 55.328125 
Q 9.078125 64.109375 15.125 69.15625 
Q 21.1875 74.21875 31.78125 74.21875 
Q 42.390625 74.21875 48.4375 69.15625 
Q 54.5 64.109375 54.5 55.328125 
Q 54.5 48.6875 50.5625 44.40625 
Q 46.625 40.140625 39.3125 38.8125 
" id="DejaVuSerif-38"/>
      </defs>
      <g style="fill:#262626;" transform="translate(619.594891486 246.308429769)scale(0.2 -0.2)">
       <use xlink:href="#DejaVuSerif-30"/>
       <use x="63.623046875" xlink:href="#DejaVuSerif-2e"/>
       <use x="95.41015625" xlink:href="#DejaVuSerif-38"/>
      </g>
     </g>
    </g>
    <g id="ytick_18">
     <g id="line2d_56">
      <g>
       <use style="fill:#262626;stroke:#262626;" x="606.594891486" xlink:href="#m8ecf527aae" y="171.898497496"/>
      </g>
     </g>
     <g id="text_28">
      <!-- 1.0 -->
      <g style="fill:#262626;" transform="translate(619.594891486 177.417247496)scale(0.2 -0.2)">
       <use xlink:href="#DejaVuSerif-31"/>
       <use x="63.623046875" xlink:href="#DejaVuSerif-2e"/>
       <use x="95.41015625" xlink:href="#DejaVuSerif-30"/>
      </g>
     </g>
    </g>
   </g>
   <g id="QuadMesh_1">
    <path clip-path="url(#p124aae564c)" d="M 587.649816 550.8 
L 606.594891 550.8 
L 606.594891 516.354409 
L 587.649816 516.354409 
L 587.649816 550.8 
" style="fill:#100000;"/>
    <path clip-path="url(#p124aae564c)" d="M 587.649816 516.354409 
L 606.594891 516.354409 
L 606.594891 481.908818 
L 587.649816 481.908818 
L 587.649816 516.354409 
" style="fill:#330000;"/>
    <path clip-path="url(#p124aae564c)" d="M 587.649816 481.908818 
L 606.594891 481.908818 
L 606.594891 447.463227 
L 587.649816 447.463227 
L 587.649816 481.908818 
" style="fill:#570000;"/>
    <path clip-path="url(#p124aae564c)" d="M 587.649816 447.463227 
L 606.594891 447.463227 
L 606.594891 413.017635 
L 587.649816 413.017635 
L 587.649816 447.463227 
" style="fill:#7a0000;"/>
    <path clip-path="url(#p124aae564c)" d="M 587.649816 413.017635 
L 606.594891 413.017635 
L 606.594891 378.572044 
L 587.649816 378.572044 
L 587.649816 413.017635 
" style="fill:#9c0000;"/>
    <path clip-path="url(#p124aae564c)" d="M 587.649816 378.572044 
L 606.594891 378.572044 
L 606.594891 344.126453 
L 587.649816 344.126453 
L 587.649816 378.572044 
" style="fill:#c00100;"/>
    <path clip-path="url(#p124aae564c)" d="M 587.649816 344.126453 
L 606.594891 344.126453 
L 606.594891 309.680862 
L 587.649816 309.680862 
L 587.649816 344.126453 
" style="fill:#e22f00;"/>
    <path clip-path="url(#p124aae564c)" d="M 587.649816 309.680862 
L 606.594891 309.680862 
L 606.594891 275.235271 
L 587.649816 275.235271 
L 587.649816 309.680862 
" style="fill:#ff5d00;"/>
    <path clip-path="url(#p124aae564c)" d="M 587.649816 275.235271 
L 606.594891 275.235271 
L 606.594891 240.78968 
L 587.649816 240.78968 
L 587.649816 275.235271 
" style="fill:#ff8b17;"/>
    <path clip-path="url(#p124aae564c)" d="M 587.649816 240.78968 
L 606.594891 240.78968 
L 606.594891 206.344089 
L 587.649816 206.344089 
L 587.649816 240.78968 
" style="fill:#ffbb77;"/>
    <path clip-path="url(#p124aae564c)" d="M 587.649816 206.344089 
L 606.594891 206.344089 
L 606.594891 171.898497 
L 587.649816 171.898497 
L 587.649816 206.344089 
" style="fill:#ffe9d3;"/>
   </g>
   <g id="patch_18">
    <path d="M 587.649816 550.8 
L 587.649816 516.354409 
L 587.649816 206.344089 
L 587.649816 171.898497 
L 606.594891 171.898497 
L 606.594891 206.344089 
L 606.594891 516.354409 
L 606.594891 550.8 
L 587.649816 550.8 
z
" style="fill:none;stroke:#262626;stroke-linejoin:miter;stroke-width:1.25;"/>
   </g>
  </g>
 </g>
 <defs>
  <clipPath id="p124aae564c">
   <rect height="378.901502504" width="18.9450751252" x="587.649816361" y="171.898497496"/>
  </clipPath>
  <clipPath id="p3c5c0d6715">
   <rect height="57.6060100167" width="386.56427379" x="178.064774624" y="89.1405676127"/>
  </clipPath>
  <clipPath id="p1644e4308f">
   <rect height="378.901502504" width="81.9285475793" x="683.483138564" y="171.898497496"/>
  </clipPath>
  <clipPath id="pd102cf842d">
   <rect height="378.901502504" width="378.901502504" x="181.804207012" y="171.898497496"/>
  </clipPath>
 </defs>
</svg>
